M48
;DRILL file {KiCad 4.0.5-e0-6337~49~ubuntu16.04.1} date Fri Jan 27 20:14:05 2017
;FORMAT={-:-/ absolute / inch / decimal}
FMAT,2
INCH,TZ
T1C0.024
T2C0.039
T3C0.040
T4C0.043
%
G90
G05
M72
T1
X4.8311Y-3.0031
X5.0339Y-3.3008
X5.3331Y-4.3232
X5.5835Y-3.7783
X5.6035Y-4.3559
X5.6185Y-4.0606
X5.6201Y-3.8295
X5.6311Y-4.5319
X5.8Y-3.848
X5.8303Y-3.7366
X5.8343Y-3.4614
X5.8488Y-3.3185
X5.8551Y-3.6921
X5.8681Y-3.4177
X5.9006Y-3.9802
X5.9039Y-3.6791
X5.9047Y-3.3827
X5.9646Y-3.7878
X6.0035Y-3.1634
X6.0472Y-4.0587
X6.0654Y-4.6343
X6.072Y-4.4461
X6.0878Y-4.3476
X6.1217Y-3.2201
X6.2315Y-2.9465
X6.3024Y-3.8311
X6.3154Y-3.6177
X6.3756Y-3.4772
X6.4197Y-3.3465
X6.4965Y-4.4252
X6.4965Y-4.6256
X6.5512Y-4.3409
X6.8697Y-4.4161
X6.9768Y-4.4161
X7.1358Y-3.5724
X7.1594Y-3.4264
X7.2252Y-3.3909
X7.4929Y-3.5685
T2
X6.015Y-3.4476
X6.015Y-3.6445
X6.2118Y-3.4476
X6.2118Y-3.6445
T3
X4.9213Y-2.9744
X4.9213Y-3.0744
X5.0213Y-2.9744
X5.0213Y-3.0744
X5.1213Y-2.9744
X5.1213Y-3.0744
X5.2209Y-3.224
X5.2209Y-3.324
X5.2213Y-2.9744
X5.2213Y-3.0744
X5.3209Y-3.224
X5.3209Y-3.324
X5.3213Y-2.9744
X5.3213Y-3.0744
X5.4209Y-3.224
X5.4209Y-3.324
X5.4213Y-2.9744
X5.4213Y-3.0744
X5.5209Y-3.224
X5.5209Y-3.324
X5.5213Y-2.9744
X5.5213Y-3.0744
X5.6213Y-2.9744
X5.6213Y-3.0744
X5.7213Y-2.9744
X5.7213Y-3.0744
X5.8213Y-2.9744
X5.8213Y-3.0744
X5.9213Y-2.9744
X5.9213Y-3.0744
X6.0213Y-2.9744
X6.0213Y-3.0744
X6.1213Y-2.9744
X6.1213Y-3.0744
T4
X5.3004Y-4.4122
X5.3004Y-4.5122
X5.6209Y-3.226
X5.7209Y-3.226
X5.7461Y-4.4122
X5.7461Y-4.5122
X6.1984Y-4.4114
X6.1984Y-4.5114
X6.5854Y-3.8106
X6.648Y-4.4106
X6.648Y-4.5106
X6.6854Y-3.8106
X6.9713Y-3.4508
X7.0713Y-3.4508
T0
M30
