G04 #@! TF.FileFunction,Legend,Top*
%FSLAX46Y46*%
G04 Gerber Fmt 4.6, Leading zero omitted, Abs format (unit mm)*
G04 Created by KiCad (PCBNEW 4.0.5-e0-6337~49~ubuntu16.04.1) date Fri Jan 27 20:14:08 2017*
%MOMM*%
%LPD*%
G01*
G04 APERTURE LIST*
%ADD10C,0.100000*%
%ADD11C,0.300000*%
%ADD12C,0.150000*%
%ADD13C,0.304800*%
%ADD14C,0.381000*%
%ADD15C,0.127000*%
%ADD16C,0.203200*%
%ADD17C,0.254000*%
%ADD18C,0.256000*%
G04 APERTURE END LIST*
D10*
D11*
X127538571Y-114704464D02*
X129038571Y-114391964D01*
X127538571Y-113704464D01*
X127538571Y-112918750D02*
X127538571Y-112633036D01*
X127610000Y-112499107D01*
X127752857Y-112374107D01*
X128038571Y-112338393D01*
X128538571Y-112400893D01*
X128824286Y-112508036D01*
X128967143Y-112668750D01*
X129038571Y-112820536D01*
X129038571Y-113106250D01*
X128967143Y-113240179D01*
X128824286Y-113365179D01*
X128538571Y-113400893D01*
X128038571Y-113338393D01*
X127752857Y-113231250D01*
X127610000Y-113070536D01*
X127538571Y-112918750D01*
X129038571Y-111106249D02*
X129038571Y-111820535D01*
X127538571Y-111633035D01*
X127538571Y-110133035D02*
X127538571Y-109847321D01*
X127610000Y-109713392D01*
X127752857Y-109588392D01*
X128038571Y-109552678D01*
X128538571Y-109615178D01*
X128824286Y-109722321D01*
X128967143Y-109883035D01*
X129038571Y-110034821D01*
X129038571Y-110320535D01*
X128967143Y-110454464D01*
X128824286Y-110579464D01*
X128538571Y-110615178D01*
X128038571Y-110552678D01*
X127752857Y-110445535D01*
X127610000Y-110284821D01*
X127538571Y-110133035D01*
X127538571Y-109061606D02*
X129038571Y-108749106D01*
X127538571Y-108061606D01*
X129038571Y-107749106D02*
X127538571Y-107561606D01*
X129181429Y-106052678D02*
X129110000Y-106186606D01*
X128967143Y-106311606D01*
X128752857Y-106499106D01*
X128681429Y-106633035D01*
X128681429Y-106775892D01*
X129038571Y-106749106D02*
X128967143Y-106883035D01*
X128824286Y-107008035D01*
X128538571Y-107043749D01*
X128038571Y-106981249D01*
X127752857Y-106874106D01*
X127610000Y-106713392D01*
X127538571Y-106561606D01*
X127538571Y-106275892D01*
X127610000Y-106141963D01*
X127752857Y-106016963D01*
X128038571Y-105981249D01*
X128538571Y-106043749D01*
X128824286Y-106150892D01*
X128967143Y-106311606D01*
X129038571Y-106463392D01*
X129038571Y-106749106D01*
X127538571Y-105275891D02*
X128752857Y-105427677D01*
X128895714Y-105374106D01*
X128967143Y-105311606D01*
X129038571Y-105177677D01*
X129038571Y-104891963D01*
X128967143Y-104740177D01*
X128895714Y-104659820D01*
X128752857Y-104570534D01*
X127538571Y-104418748D01*
X128252857Y-103793748D02*
X128252857Y-103293748D01*
X129038571Y-103177676D02*
X129038571Y-103891962D01*
X127538571Y-103704462D01*
X127538571Y-102990176D01*
X127681429Y-101293749D02*
X127610000Y-101213391D01*
X127538571Y-101061605D01*
X127538571Y-100704462D01*
X127610000Y-100570534D01*
X127681429Y-100508034D01*
X127824286Y-100454463D01*
X127967143Y-100472320D01*
X128181429Y-100570534D01*
X129038571Y-101534819D01*
X129038571Y-100606248D01*
X127538571Y-99490177D02*
X127538571Y-99347320D01*
X127610000Y-99213392D01*
X127681429Y-99150892D01*
X127824286Y-99097320D01*
X128110000Y-99061606D01*
X128467143Y-99106249D01*
X128752857Y-99213391D01*
X128895714Y-99302677D01*
X128967143Y-99383035D01*
X129038571Y-99534820D01*
X129038571Y-99677677D01*
X128967143Y-99811606D01*
X128895714Y-99874106D01*
X128752857Y-99927677D01*
X128467143Y-99963392D01*
X128110000Y-99918749D01*
X127824286Y-99811606D01*
X127681429Y-99722321D01*
X127610000Y-99641963D01*
X127538571Y-99490177D01*
X129038571Y-97749106D02*
X129038571Y-98606249D01*
X129038571Y-98177677D02*
X127538571Y-97990177D01*
X127752857Y-98159820D01*
X127895714Y-98320535D01*
X127967143Y-98472321D01*
X127538571Y-97061606D02*
X127538571Y-96061606D01*
X129038571Y-96891963D01*
X129458570Y-118717857D02*
X129672856Y-118789286D01*
X129744284Y-118860714D01*
X129815713Y-119003571D01*
X129815713Y-119217857D01*
X129744284Y-119360714D01*
X129672856Y-119432143D01*
X129529998Y-119503571D01*
X128958570Y-119503571D01*
X128958570Y-118003571D01*
X129458570Y-118003571D01*
X129601427Y-118075000D01*
X129672856Y-118146429D01*
X129744284Y-118289286D01*
X129744284Y-118432143D01*
X129672856Y-118575000D01*
X129601427Y-118646429D01*
X129458570Y-118717857D01*
X128958570Y-118717857D01*
X131101427Y-119503571D02*
X131101427Y-118717857D01*
X131029998Y-118575000D01*
X130887141Y-118503571D01*
X130601427Y-118503571D01*
X130458570Y-118575000D01*
X131101427Y-119432143D02*
X130958570Y-119503571D01*
X130601427Y-119503571D01*
X130458570Y-119432143D01*
X130387141Y-119289286D01*
X130387141Y-119146429D01*
X130458570Y-119003571D01*
X130601427Y-118932143D01*
X130958570Y-118932143D01*
X131101427Y-118860714D01*
X131815713Y-118503571D02*
X131815713Y-119503571D01*
X131815713Y-118646429D02*
X131887141Y-118575000D01*
X132029999Y-118503571D01*
X132244284Y-118503571D01*
X132387141Y-118575000D01*
X132458570Y-118717857D01*
X132458570Y-119503571D01*
X133815713Y-119503571D02*
X133815713Y-118717857D01*
X133744284Y-118575000D01*
X133601427Y-118503571D01*
X133315713Y-118503571D01*
X133172856Y-118575000D01*
X133815713Y-119432143D02*
X133672856Y-119503571D01*
X133315713Y-119503571D01*
X133172856Y-119432143D01*
X133101427Y-119289286D01*
X133101427Y-119146429D01*
X133172856Y-119003571D01*
X133315713Y-118932143D01*
X133672856Y-118932143D01*
X133815713Y-118860714D01*
X134529999Y-118503571D02*
X134529999Y-119503571D01*
X134529999Y-118646429D02*
X134601427Y-118575000D01*
X134744285Y-118503571D01*
X134958570Y-118503571D01*
X135101427Y-118575000D01*
X135172856Y-118717857D01*
X135172856Y-119503571D01*
X136529999Y-119503571D02*
X136529999Y-118717857D01*
X136458570Y-118575000D01*
X136315713Y-118503571D01*
X136029999Y-118503571D01*
X135887142Y-118575000D01*
X136529999Y-119432143D02*
X136387142Y-119503571D01*
X136029999Y-119503571D01*
X135887142Y-119432143D01*
X135815713Y-119289286D01*
X135815713Y-119146429D01*
X135887142Y-119003571D01*
X136029999Y-118932143D01*
X136387142Y-118932143D01*
X136529999Y-118860714D01*
X138387142Y-119503571D02*
X138387142Y-118003571D01*
X138958570Y-118003571D01*
X139101428Y-118075000D01*
X139172856Y-118146429D01*
X139244285Y-118289286D01*
X139244285Y-118503571D01*
X139172856Y-118646429D01*
X139101428Y-118717857D01*
X138958570Y-118789286D01*
X138387142Y-118789286D01*
X139887142Y-119503571D02*
X139887142Y-118503571D01*
X139887142Y-118003571D02*
X139815713Y-118075000D01*
X139887142Y-118146429D01*
X139958570Y-118075000D01*
X139887142Y-118003571D01*
X139887142Y-118146429D01*
X141744285Y-118503571D02*
X141744285Y-120003571D01*
X141744285Y-118575000D02*
X141887142Y-118503571D01*
X142172856Y-118503571D01*
X142315713Y-118575000D01*
X142387142Y-118646429D01*
X142458571Y-118789286D01*
X142458571Y-119217857D01*
X142387142Y-119360714D01*
X142315713Y-119432143D01*
X142172856Y-119503571D01*
X141887142Y-119503571D01*
X141744285Y-119432143D01*
X143101428Y-119503571D02*
X143101428Y-118503571D01*
X143101428Y-118003571D02*
X143029999Y-118075000D01*
X143101428Y-118146429D01*
X143172856Y-118075000D01*
X143101428Y-118003571D01*
X143101428Y-118146429D01*
X143815714Y-118503571D02*
X143815714Y-119503571D01*
X143815714Y-118646429D02*
X143887142Y-118575000D01*
X144030000Y-118503571D01*
X144244285Y-118503571D01*
X144387142Y-118575000D01*
X144458571Y-118717857D01*
X144458571Y-119503571D01*
X145101428Y-119432143D02*
X145244285Y-119503571D01*
X145530000Y-119503571D01*
X145672857Y-119432143D01*
X145744285Y-119289286D01*
X145744285Y-119217857D01*
X145672857Y-119075000D01*
X145530000Y-119003571D01*
X145315714Y-119003571D01*
X145172857Y-118932143D01*
X145101428Y-118789286D01*
X145101428Y-118717857D01*
X145172857Y-118575000D01*
X145315714Y-118503571D01*
X145530000Y-118503571D01*
X145672857Y-118575000D01*
X148172857Y-119503571D02*
X148172857Y-118003571D01*
X148172857Y-119432143D02*
X148030000Y-119503571D01*
X147744286Y-119503571D01*
X147601428Y-119432143D01*
X147530000Y-119360714D01*
X147458571Y-119217857D01*
X147458571Y-118789286D01*
X147530000Y-118646429D01*
X147601428Y-118575000D01*
X147744286Y-118503571D01*
X148030000Y-118503571D01*
X148172857Y-118575000D01*
X149458571Y-119432143D02*
X149315714Y-119503571D01*
X149030000Y-119503571D01*
X148887143Y-119432143D01*
X148815714Y-119289286D01*
X148815714Y-118717857D01*
X148887143Y-118575000D01*
X149030000Y-118503571D01*
X149315714Y-118503571D01*
X149458571Y-118575000D01*
X149530000Y-118717857D01*
X149530000Y-118860714D01*
X148815714Y-119003571D01*
X150101428Y-119432143D02*
X150244285Y-119503571D01*
X150530000Y-119503571D01*
X150672857Y-119432143D01*
X150744285Y-119289286D01*
X150744285Y-119217857D01*
X150672857Y-119075000D01*
X150530000Y-119003571D01*
X150315714Y-119003571D01*
X150172857Y-118932143D01*
X150101428Y-118789286D01*
X150101428Y-118717857D01*
X150172857Y-118575000D01*
X150315714Y-118503571D01*
X150530000Y-118503571D01*
X150672857Y-118575000D01*
X152030000Y-119432143D02*
X151887143Y-119503571D01*
X151601429Y-119503571D01*
X151458571Y-119432143D01*
X151387143Y-119360714D01*
X151315714Y-119217857D01*
X151315714Y-118789286D01*
X151387143Y-118646429D01*
X151458571Y-118575000D01*
X151601429Y-118503571D01*
X151887143Y-118503571D01*
X152030000Y-118575000D01*
X152672857Y-119503571D02*
X152672857Y-118503571D01*
X152672857Y-118789286D02*
X152744285Y-118646429D01*
X152815714Y-118575000D01*
X152958571Y-118503571D01*
X153101428Y-118503571D01*
X153601428Y-119503571D02*
X153601428Y-118503571D01*
X153601428Y-118003571D02*
X153529999Y-118075000D01*
X153601428Y-118146429D01*
X153672856Y-118075000D01*
X153601428Y-118003571D01*
X153601428Y-118146429D01*
X154315714Y-118503571D02*
X154315714Y-120003571D01*
X154315714Y-118575000D02*
X154458571Y-118503571D01*
X154744285Y-118503571D01*
X154887142Y-118575000D01*
X154958571Y-118646429D01*
X155030000Y-118789286D01*
X155030000Y-119217857D01*
X154958571Y-119360714D01*
X154887142Y-119432143D01*
X154744285Y-119503571D01*
X154458571Y-119503571D01*
X154315714Y-119432143D01*
X155458571Y-118503571D02*
X156030000Y-118503571D01*
X155672857Y-118003571D02*
X155672857Y-119289286D01*
X155744285Y-119432143D01*
X155887143Y-119503571D01*
X156030000Y-119503571D01*
X156530000Y-119503571D02*
X156530000Y-118503571D01*
X156530000Y-118003571D02*
X156458571Y-118075000D01*
X156530000Y-118146429D01*
X156601428Y-118075000D01*
X156530000Y-118003571D01*
X156530000Y-118146429D01*
X157458572Y-119503571D02*
X157315714Y-119432143D01*
X157244286Y-119360714D01*
X157172857Y-119217857D01*
X157172857Y-118789286D01*
X157244286Y-118646429D01*
X157315714Y-118575000D01*
X157458572Y-118503571D01*
X157672857Y-118503571D01*
X157815714Y-118575000D01*
X157887143Y-118646429D01*
X157958572Y-118789286D01*
X157958572Y-119217857D01*
X157887143Y-119360714D01*
X157815714Y-119432143D01*
X157672857Y-119503571D01*
X157458572Y-119503571D01*
X158601429Y-118503571D02*
X158601429Y-119503571D01*
X158601429Y-118646429D02*
X158672857Y-118575000D01*
X158815715Y-118503571D01*
X159030000Y-118503571D01*
X159172857Y-118575000D01*
X159244286Y-118717857D01*
X159244286Y-119503571D01*
X160387143Y-120075000D02*
X160315715Y-120003571D01*
X160172858Y-119789286D01*
X160101429Y-119646429D01*
X160030000Y-119432143D01*
X159958572Y-119075000D01*
X159958572Y-118789286D01*
X160030000Y-118432143D01*
X160101429Y-118217857D01*
X160172858Y-118075000D01*
X160315715Y-117860714D01*
X160387143Y-117789286D01*
X160815715Y-118003571D02*
X161172858Y-119503571D01*
X161458572Y-118432143D01*
X161744286Y-119503571D01*
X162101429Y-118003571D01*
X162672858Y-119503571D02*
X162672858Y-118503571D01*
X162672858Y-118003571D02*
X162601429Y-118075000D01*
X162672858Y-118146429D01*
X162744286Y-118075000D01*
X162672858Y-118003571D01*
X162672858Y-118146429D01*
X163387144Y-119503571D02*
X163387144Y-118503571D01*
X163387144Y-118789286D02*
X163458572Y-118646429D01*
X163530001Y-118575000D01*
X163672858Y-118503571D01*
X163815715Y-118503571D01*
X164315715Y-119503571D02*
X164315715Y-118503571D01*
X164315715Y-118003571D02*
X164244286Y-118075000D01*
X164315715Y-118146429D01*
X164387143Y-118075000D01*
X164315715Y-118003571D01*
X164315715Y-118146429D01*
X165030001Y-118503571D02*
X165030001Y-119503571D01*
X165030001Y-118646429D02*
X165101429Y-118575000D01*
X165244287Y-118503571D01*
X165458572Y-118503571D01*
X165601429Y-118575000D01*
X165672858Y-118717857D01*
X165672858Y-119503571D01*
X167030001Y-118503571D02*
X167030001Y-119717857D01*
X166958572Y-119860714D01*
X166887144Y-119932143D01*
X166744287Y-120003571D01*
X166530001Y-120003571D01*
X166387144Y-119932143D01*
X167030001Y-119432143D02*
X166887144Y-119503571D01*
X166601430Y-119503571D01*
X166458572Y-119432143D01*
X166387144Y-119360714D01*
X166315715Y-119217857D01*
X166315715Y-118789286D01*
X166387144Y-118646429D01*
X166458572Y-118575000D01*
X166601430Y-118503571D01*
X166887144Y-118503571D01*
X167030001Y-118575000D01*
X168887144Y-119503571D02*
X168887144Y-118003571D01*
X169458572Y-118003571D01*
X169601430Y-118075000D01*
X169672858Y-118146429D01*
X169744287Y-118289286D01*
X169744287Y-118503571D01*
X169672858Y-118646429D01*
X169601430Y-118717857D01*
X169458572Y-118789286D01*
X168887144Y-118789286D01*
X170387144Y-119503571D02*
X170387144Y-118503571D01*
X170387144Y-118003571D02*
X170315715Y-118075000D01*
X170387144Y-118146429D01*
X170458572Y-118075000D01*
X170387144Y-118003571D01*
X170387144Y-118146429D01*
X170958573Y-120075000D02*
X171030001Y-120003571D01*
X171172858Y-119789286D01*
X171244287Y-119646429D01*
X171315716Y-119432143D01*
X171387144Y-119075000D01*
X171387144Y-118789286D01*
X171315716Y-118432143D01*
X171244287Y-118217857D01*
X171172858Y-118075000D01*
X171030001Y-117860714D01*
X170958573Y-117789286D01*
X172101430Y-119360714D02*
X172172858Y-119432143D01*
X172101430Y-119503571D01*
X172030001Y-119432143D01*
X172101430Y-119360714D01*
X172101430Y-119503571D01*
X172101430Y-118575000D02*
X172172858Y-118646429D01*
X172101430Y-118717857D01*
X172030001Y-118646429D01*
X172101430Y-118575000D01*
X172101430Y-118717857D01*
X123030001Y-121910714D02*
X122958572Y-121982143D01*
X122744286Y-122053571D01*
X122601429Y-122053571D01*
X122387144Y-121982143D01*
X122244286Y-121839286D01*
X122172858Y-121696429D01*
X122101429Y-121410714D01*
X122101429Y-121196429D01*
X122172858Y-120910714D01*
X122244286Y-120767857D01*
X122387144Y-120625000D01*
X122601429Y-120553571D01*
X122744286Y-120553571D01*
X122958572Y-120625000D01*
X123030001Y-120696429D01*
X123601429Y-121982143D02*
X123815715Y-122053571D01*
X124172858Y-122053571D01*
X124315715Y-121982143D01*
X124387144Y-121910714D01*
X124458572Y-121767857D01*
X124458572Y-121625000D01*
X124387144Y-121482143D01*
X124315715Y-121410714D01*
X124172858Y-121339286D01*
X123887144Y-121267857D01*
X123744286Y-121196429D01*
X123672858Y-121125000D01*
X123601429Y-120982143D01*
X123601429Y-120839286D01*
X123672858Y-120696429D01*
X123744286Y-120625000D01*
X123887144Y-120553571D01*
X124244286Y-120553571D01*
X124458572Y-120625000D01*
X125101429Y-121482143D02*
X126244286Y-121482143D01*
X127744286Y-120625000D02*
X127601429Y-120553571D01*
X127387143Y-120553571D01*
X127172858Y-120625000D01*
X127030000Y-120767857D01*
X126958572Y-120910714D01*
X126887143Y-121196429D01*
X126887143Y-121410714D01*
X126958572Y-121696429D01*
X127030000Y-121839286D01*
X127172858Y-121982143D01*
X127387143Y-122053571D01*
X127530000Y-122053571D01*
X127744286Y-121982143D01*
X127815715Y-121910714D01*
X127815715Y-121410714D01*
X127530000Y-121410714D01*
X128458572Y-122053571D02*
X128458572Y-120553571D01*
X129030000Y-120553571D01*
X129172858Y-120625000D01*
X129244286Y-120696429D01*
X129315715Y-120839286D01*
X129315715Y-121053571D01*
X129244286Y-121196429D01*
X129172858Y-121267857D01*
X129030000Y-121339286D01*
X128458572Y-121339286D01*
X129958572Y-122053571D02*
X129958572Y-120553571D01*
X130958572Y-120553571D02*
X131244286Y-120553571D01*
X131387144Y-120625000D01*
X131530001Y-120767857D01*
X131601429Y-121053571D01*
X131601429Y-121553571D01*
X131530001Y-121839286D01*
X131387144Y-121982143D01*
X131244286Y-122053571D01*
X130958572Y-122053571D01*
X130815715Y-121982143D01*
X130672858Y-121839286D01*
X130601429Y-121553571D01*
X130601429Y-121053571D01*
X130672858Y-120767857D01*
X130815715Y-120625000D01*
X130958572Y-120553571D01*
X133030001Y-122053571D02*
X132172858Y-122053571D01*
X132601430Y-122053571D02*
X132601430Y-120553571D01*
X132458573Y-120767857D01*
X132315715Y-120910714D01*
X132172858Y-120982143D01*
X133530001Y-120553571D02*
X134530001Y-120553571D01*
X133887144Y-122053571D01*
X135172857Y-121982143D02*
X135172857Y-122053571D01*
X135101429Y-122196429D01*
X135030000Y-122267857D01*
X136672858Y-121910714D02*
X136601429Y-121982143D01*
X136387143Y-122053571D01*
X136244286Y-122053571D01*
X136030001Y-121982143D01*
X135887143Y-121839286D01*
X135815715Y-121696429D01*
X135744286Y-121410714D01*
X135744286Y-121196429D01*
X135815715Y-120910714D01*
X135887143Y-120767857D01*
X136030001Y-120625000D01*
X136244286Y-120553571D01*
X136387143Y-120553571D01*
X136601429Y-120625000D01*
X136672858Y-120696429D01*
X137244286Y-121982143D02*
X137458572Y-122053571D01*
X137815715Y-122053571D01*
X137958572Y-121982143D01*
X138030001Y-121910714D01*
X138101429Y-121767857D01*
X138101429Y-121625000D01*
X138030001Y-121482143D01*
X137958572Y-121410714D01*
X137815715Y-121339286D01*
X137530001Y-121267857D01*
X137387143Y-121196429D01*
X137315715Y-121125000D01*
X137244286Y-120982143D01*
X137244286Y-120839286D01*
X137315715Y-120696429D01*
X137387143Y-120625000D01*
X137530001Y-120553571D01*
X137887143Y-120553571D01*
X138101429Y-120625000D01*
X139530000Y-122053571D02*
X138672857Y-122053571D01*
X139101429Y-122053571D02*
X139101429Y-120553571D01*
X138958572Y-120767857D01*
X138815714Y-120910714D01*
X138672857Y-120982143D01*
X140172857Y-121482143D02*
X141315714Y-121482143D01*
X142815714Y-120625000D02*
X142672857Y-120553571D01*
X142458571Y-120553571D01*
X142244286Y-120625000D01*
X142101428Y-120767857D01*
X142030000Y-120910714D01*
X141958571Y-121196429D01*
X141958571Y-121410714D01*
X142030000Y-121696429D01*
X142101428Y-121839286D01*
X142244286Y-121982143D01*
X142458571Y-122053571D01*
X142601428Y-122053571D01*
X142815714Y-121982143D01*
X142887143Y-121910714D01*
X142887143Y-121410714D01*
X142601428Y-121410714D01*
X143530000Y-122053571D02*
X143530000Y-120553571D01*
X144101428Y-120553571D01*
X144244286Y-120625000D01*
X144315714Y-120696429D01*
X144387143Y-120839286D01*
X144387143Y-121053571D01*
X144315714Y-121196429D01*
X144244286Y-121267857D01*
X144101428Y-121339286D01*
X143530000Y-121339286D01*
X145030000Y-122053571D02*
X145030000Y-120553571D01*
X146030000Y-120553571D02*
X146315714Y-120553571D01*
X146458572Y-120625000D01*
X146601429Y-120767857D01*
X146672857Y-121053571D01*
X146672857Y-121553571D01*
X146601429Y-121839286D01*
X146458572Y-121982143D01*
X146315714Y-122053571D01*
X146030000Y-122053571D01*
X145887143Y-121982143D01*
X145744286Y-121839286D01*
X145672857Y-121553571D01*
X145672857Y-121053571D01*
X145744286Y-120767857D01*
X145887143Y-120625000D01*
X146030000Y-120553571D01*
X148101429Y-122053571D02*
X147244286Y-122053571D01*
X147672858Y-122053571D02*
X147672858Y-120553571D01*
X147530001Y-120767857D01*
X147387143Y-120910714D01*
X147244286Y-120982143D01*
X149387143Y-120553571D02*
X149101429Y-120553571D01*
X148958572Y-120625000D01*
X148887143Y-120696429D01*
X148744286Y-120910714D01*
X148672857Y-121196429D01*
X148672857Y-121767857D01*
X148744286Y-121910714D01*
X148815714Y-121982143D01*
X148958572Y-122053571D01*
X149244286Y-122053571D01*
X149387143Y-121982143D01*
X149458572Y-121910714D01*
X149530000Y-121767857D01*
X149530000Y-121410714D01*
X149458572Y-121267857D01*
X149387143Y-121196429D01*
X149244286Y-121125000D01*
X148958572Y-121125000D01*
X148815714Y-121196429D01*
X148744286Y-121267857D01*
X148672857Y-121410714D01*
X150244285Y-121982143D02*
X150244285Y-122053571D01*
X150172857Y-122196429D01*
X150101428Y-122267857D01*
X151744286Y-121910714D02*
X151672857Y-121982143D01*
X151458571Y-122053571D01*
X151315714Y-122053571D01*
X151101429Y-121982143D01*
X150958571Y-121839286D01*
X150887143Y-121696429D01*
X150815714Y-121410714D01*
X150815714Y-121196429D01*
X150887143Y-120910714D01*
X150958571Y-120767857D01*
X151101429Y-120625000D01*
X151315714Y-120553571D01*
X151458571Y-120553571D01*
X151672857Y-120625000D01*
X151744286Y-120696429D01*
X152315714Y-121982143D02*
X152530000Y-122053571D01*
X152887143Y-122053571D01*
X153030000Y-121982143D01*
X153101429Y-121910714D01*
X153172857Y-121767857D01*
X153172857Y-121625000D01*
X153101429Y-121482143D01*
X153030000Y-121410714D01*
X152887143Y-121339286D01*
X152601429Y-121267857D01*
X152458571Y-121196429D01*
X152387143Y-121125000D01*
X152315714Y-120982143D01*
X152315714Y-120839286D01*
X152387143Y-120696429D01*
X152458571Y-120625000D01*
X152601429Y-120553571D01*
X152958571Y-120553571D01*
X153172857Y-120625000D01*
X153744285Y-120696429D02*
X153815714Y-120625000D01*
X153958571Y-120553571D01*
X154315714Y-120553571D01*
X154458571Y-120625000D01*
X154530000Y-120696429D01*
X154601428Y-120839286D01*
X154601428Y-120982143D01*
X154530000Y-121196429D01*
X153672857Y-122053571D01*
X154601428Y-122053571D01*
X155244285Y-121482143D02*
X156387142Y-121482143D01*
X157887142Y-120625000D02*
X157744285Y-120553571D01*
X157529999Y-120553571D01*
X157315714Y-120625000D01*
X157172856Y-120767857D01*
X157101428Y-120910714D01*
X157029999Y-121196429D01*
X157029999Y-121410714D01*
X157101428Y-121696429D01*
X157172856Y-121839286D01*
X157315714Y-121982143D01*
X157529999Y-122053571D01*
X157672856Y-122053571D01*
X157887142Y-121982143D01*
X157958571Y-121910714D01*
X157958571Y-121410714D01*
X157672856Y-121410714D01*
X158601428Y-122053571D02*
X158601428Y-120553571D01*
X159172856Y-120553571D01*
X159315714Y-120625000D01*
X159387142Y-120696429D01*
X159458571Y-120839286D01*
X159458571Y-121053571D01*
X159387142Y-121196429D01*
X159315714Y-121267857D01*
X159172856Y-121339286D01*
X158601428Y-121339286D01*
X160101428Y-122053571D02*
X160101428Y-120553571D01*
X161101428Y-120553571D02*
X161387142Y-120553571D01*
X161530000Y-120625000D01*
X161672857Y-120767857D01*
X161744285Y-121053571D01*
X161744285Y-121553571D01*
X161672857Y-121839286D01*
X161530000Y-121982143D01*
X161387142Y-122053571D01*
X161101428Y-122053571D01*
X160958571Y-121982143D01*
X160815714Y-121839286D01*
X160744285Y-121553571D01*
X160744285Y-121053571D01*
X160815714Y-120767857D01*
X160958571Y-120625000D01*
X161101428Y-120553571D01*
X163172857Y-122053571D02*
X162315714Y-122053571D01*
X162744286Y-122053571D02*
X162744286Y-120553571D01*
X162601429Y-120767857D01*
X162458571Y-120910714D01*
X162315714Y-120982143D01*
X163887142Y-122053571D02*
X164172857Y-122053571D01*
X164315714Y-121982143D01*
X164387142Y-121910714D01*
X164530000Y-121696429D01*
X164601428Y-121410714D01*
X164601428Y-120839286D01*
X164530000Y-120696429D01*
X164458571Y-120625000D01*
X164315714Y-120553571D01*
X164030000Y-120553571D01*
X163887142Y-120625000D01*
X163815714Y-120696429D01*
X163744285Y-120839286D01*
X163744285Y-121196429D01*
X163815714Y-121339286D01*
X163887142Y-121410714D01*
X164030000Y-121482143D01*
X164315714Y-121482143D01*
X164458571Y-121410714D01*
X164530000Y-121339286D01*
X164601428Y-121196429D01*
X165315713Y-121982143D02*
X165315713Y-122053571D01*
X165244285Y-122196429D01*
X165172856Y-122267857D01*
X166815714Y-121910714D02*
X166744285Y-121982143D01*
X166529999Y-122053571D01*
X166387142Y-122053571D01*
X166172857Y-121982143D01*
X166029999Y-121839286D01*
X165958571Y-121696429D01*
X165887142Y-121410714D01*
X165887142Y-121196429D01*
X165958571Y-120910714D01*
X166029999Y-120767857D01*
X166172857Y-120625000D01*
X166387142Y-120553571D01*
X166529999Y-120553571D01*
X166744285Y-120625000D01*
X166815714Y-120696429D01*
X167387142Y-121982143D02*
X167601428Y-122053571D01*
X167958571Y-122053571D01*
X168101428Y-121982143D01*
X168172857Y-121910714D01*
X168244285Y-121767857D01*
X168244285Y-121625000D01*
X168172857Y-121482143D01*
X168101428Y-121410714D01*
X167958571Y-121339286D01*
X167672857Y-121267857D01*
X167529999Y-121196429D01*
X167458571Y-121125000D01*
X167387142Y-120982143D01*
X167387142Y-120839286D01*
X167458571Y-120696429D01*
X167529999Y-120625000D01*
X167672857Y-120553571D01*
X168029999Y-120553571D01*
X168244285Y-120625000D01*
X168744285Y-120553571D02*
X169672856Y-120553571D01*
X169172856Y-121125000D01*
X169387142Y-121125000D01*
X169529999Y-121196429D01*
X169601428Y-121267857D01*
X169672856Y-121410714D01*
X169672856Y-121767857D01*
X169601428Y-121910714D01*
X169529999Y-121982143D01*
X169387142Y-122053571D01*
X168958570Y-122053571D01*
X168815713Y-121982143D01*
X168744285Y-121910714D01*
X170315713Y-121482143D02*
X171458570Y-121482143D01*
X172958570Y-120625000D02*
X172815713Y-120553571D01*
X172601427Y-120553571D01*
X172387142Y-120625000D01*
X172244284Y-120767857D01*
X172172856Y-120910714D01*
X172101427Y-121196429D01*
X172101427Y-121410714D01*
X172172856Y-121696429D01*
X172244284Y-121839286D01*
X172387142Y-121982143D01*
X172601427Y-122053571D01*
X172744284Y-122053571D01*
X172958570Y-121982143D01*
X173029999Y-121910714D01*
X173029999Y-121410714D01*
X172744284Y-121410714D01*
X173672856Y-122053571D02*
X173672856Y-120553571D01*
X174244284Y-120553571D01*
X174387142Y-120625000D01*
X174458570Y-120696429D01*
X174529999Y-120839286D01*
X174529999Y-121053571D01*
X174458570Y-121196429D01*
X174387142Y-121267857D01*
X174244284Y-121339286D01*
X173672856Y-121339286D01*
X175172856Y-122053571D02*
X175172856Y-120553571D01*
X176172856Y-120553571D02*
X176458570Y-120553571D01*
X176601428Y-120625000D01*
X176744285Y-120767857D01*
X176815713Y-121053571D01*
X176815713Y-121553571D01*
X176744285Y-121839286D01*
X176601428Y-121982143D01*
X176458570Y-122053571D01*
X176172856Y-122053571D01*
X176029999Y-121982143D01*
X175887142Y-121839286D01*
X175815713Y-121553571D01*
X175815713Y-121053571D01*
X175887142Y-120767857D01*
X176029999Y-120625000D01*
X176172856Y-120553571D01*
X177672857Y-121196429D02*
X177529999Y-121125000D01*
X177458571Y-121053571D01*
X177387142Y-120910714D01*
X177387142Y-120839286D01*
X177458571Y-120696429D01*
X177529999Y-120625000D01*
X177672857Y-120553571D01*
X177958571Y-120553571D01*
X178101428Y-120625000D01*
X178172857Y-120696429D01*
X178244285Y-120839286D01*
X178244285Y-120910714D01*
X178172857Y-121053571D01*
X178101428Y-121125000D01*
X177958571Y-121196429D01*
X177672857Y-121196429D01*
X177529999Y-121267857D01*
X177458571Y-121339286D01*
X177387142Y-121482143D01*
X177387142Y-121767857D01*
X177458571Y-121910714D01*
X177529999Y-121982143D01*
X177672857Y-122053571D01*
X177958571Y-122053571D01*
X178101428Y-121982143D01*
X178172857Y-121910714D01*
X178244285Y-121767857D01*
X178244285Y-121482143D01*
X178172857Y-121339286D01*
X178101428Y-121267857D01*
X177958571Y-121196429D01*
X178958570Y-121982143D02*
X178958570Y-122053571D01*
X178887142Y-122196429D01*
X178815713Y-122267857D01*
X123530001Y-124460714D02*
X123458572Y-124532143D01*
X123244286Y-124603571D01*
X123101429Y-124603571D01*
X122887144Y-124532143D01*
X122744286Y-124389286D01*
X122672858Y-124246429D01*
X122601429Y-123960714D01*
X122601429Y-123746429D01*
X122672858Y-123460714D01*
X122744286Y-123317857D01*
X122887144Y-123175000D01*
X123101429Y-123103571D01*
X123244286Y-123103571D01*
X123458572Y-123175000D01*
X123530001Y-123246429D01*
X124101429Y-124532143D02*
X124315715Y-124603571D01*
X124672858Y-124603571D01*
X124815715Y-124532143D01*
X124887144Y-124460714D01*
X124958572Y-124317857D01*
X124958572Y-124175000D01*
X124887144Y-124032143D01*
X124815715Y-123960714D01*
X124672858Y-123889286D01*
X124387144Y-123817857D01*
X124244286Y-123746429D01*
X124172858Y-123675000D01*
X124101429Y-123532143D01*
X124101429Y-123389286D01*
X124172858Y-123246429D01*
X124244286Y-123175000D01*
X124387144Y-123103571D01*
X124744286Y-123103571D01*
X124958572Y-123175000D01*
X126244286Y-123603571D02*
X126244286Y-124603571D01*
X125887143Y-123032143D02*
X125530000Y-124103571D01*
X126458572Y-124103571D01*
X127030000Y-124032143D02*
X128172857Y-124032143D01*
X129672857Y-123175000D02*
X129530000Y-123103571D01*
X129315714Y-123103571D01*
X129101429Y-123175000D01*
X128958571Y-123317857D01*
X128887143Y-123460714D01*
X128815714Y-123746429D01*
X128815714Y-123960714D01*
X128887143Y-124246429D01*
X128958571Y-124389286D01*
X129101429Y-124532143D01*
X129315714Y-124603571D01*
X129458571Y-124603571D01*
X129672857Y-124532143D01*
X129744286Y-124460714D01*
X129744286Y-123960714D01*
X129458571Y-123960714D01*
X130387143Y-124603571D02*
X130387143Y-123103571D01*
X130958571Y-123103571D01*
X131101429Y-123175000D01*
X131172857Y-123246429D01*
X131244286Y-123389286D01*
X131244286Y-123603571D01*
X131172857Y-123746429D01*
X131101429Y-123817857D01*
X130958571Y-123889286D01*
X130387143Y-123889286D01*
X131887143Y-124603571D02*
X131887143Y-123103571D01*
X132887143Y-123103571D02*
X133172857Y-123103571D01*
X133315715Y-123175000D01*
X133458572Y-123317857D01*
X133530000Y-123603571D01*
X133530000Y-124103571D01*
X133458572Y-124389286D01*
X133315715Y-124532143D01*
X133172857Y-124603571D01*
X132887143Y-124603571D01*
X132744286Y-124532143D01*
X132601429Y-124389286D01*
X132530000Y-124103571D01*
X132530000Y-123603571D01*
X132601429Y-123317857D01*
X132744286Y-123175000D01*
X132887143Y-123103571D01*
X134244286Y-124603571D02*
X134530001Y-124603571D01*
X134672858Y-124532143D01*
X134744286Y-124460714D01*
X134887144Y-124246429D01*
X134958572Y-123960714D01*
X134958572Y-123389286D01*
X134887144Y-123246429D01*
X134815715Y-123175000D01*
X134672858Y-123103571D01*
X134387144Y-123103571D01*
X134244286Y-123175000D01*
X134172858Y-123246429D01*
X134101429Y-123389286D01*
X134101429Y-123746429D01*
X134172858Y-123889286D01*
X134244286Y-123960714D01*
X134387144Y-124032143D01*
X134672858Y-124032143D01*
X134815715Y-123960714D01*
X134887144Y-123889286D01*
X134958572Y-123746429D01*
X135672857Y-124532143D02*
X135672857Y-124603571D01*
X135601429Y-124746429D01*
X135530000Y-124817857D01*
X137172858Y-124460714D02*
X137101429Y-124532143D01*
X136887143Y-124603571D01*
X136744286Y-124603571D01*
X136530001Y-124532143D01*
X136387143Y-124389286D01*
X136315715Y-124246429D01*
X136244286Y-123960714D01*
X136244286Y-123746429D01*
X136315715Y-123460714D01*
X136387143Y-123317857D01*
X136530001Y-123175000D01*
X136744286Y-123103571D01*
X136887143Y-123103571D01*
X137101429Y-123175000D01*
X137172858Y-123246429D01*
X137744286Y-124532143D02*
X137958572Y-124603571D01*
X138315715Y-124603571D01*
X138458572Y-124532143D01*
X138530001Y-124460714D01*
X138601429Y-124317857D01*
X138601429Y-124175000D01*
X138530001Y-124032143D01*
X138458572Y-123960714D01*
X138315715Y-123889286D01*
X138030001Y-123817857D01*
X137887143Y-123746429D01*
X137815715Y-123675000D01*
X137744286Y-123532143D01*
X137744286Y-123389286D01*
X137815715Y-123246429D01*
X137887143Y-123175000D01*
X138030001Y-123103571D01*
X138387143Y-123103571D01*
X138601429Y-123175000D01*
X139958572Y-123103571D02*
X139244286Y-123103571D01*
X139172857Y-123817857D01*
X139244286Y-123746429D01*
X139387143Y-123675000D01*
X139744286Y-123675000D01*
X139887143Y-123746429D01*
X139958572Y-123817857D01*
X140030000Y-123960714D01*
X140030000Y-124317857D01*
X139958572Y-124460714D01*
X139887143Y-124532143D01*
X139744286Y-124603571D01*
X139387143Y-124603571D01*
X139244286Y-124532143D01*
X139172857Y-124460714D01*
X140672857Y-124032143D02*
X141815714Y-124032143D01*
X143315714Y-123175000D02*
X143172857Y-123103571D01*
X142958571Y-123103571D01*
X142744286Y-123175000D01*
X142601428Y-123317857D01*
X142530000Y-123460714D01*
X142458571Y-123746429D01*
X142458571Y-123960714D01*
X142530000Y-124246429D01*
X142601428Y-124389286D01*
X142744286Y-124532143D01*
X142958571Y-124603571D01*
X143101428Y-124603571D01*
X143315714Y-124532143D01*
X143387143Y-124460714D01*
X143387143Y-123960714D01*
X143101428Y-123960714D01*
X144030000Y-124603571D02*
X144030000Y-123103571D01*
X144601428Y-123103571D01*
X144744286Y-123175000D01*
X144815714Y-123246429D01*
X144887143Y-123389286D01*
X144887143Y-123603571D01*
X144815714Y-123746429D01*
X144744286Y-123817857D01*
X144601428Y-123889286D01*
X144030000Y-123889286D01*
X145530000Y-124603571D02*
X145530000Y-123103571D01*
X146530000Y-123103571D02*
X146815714Y-123103571D01*
X146958572Y-123175000D01*
X147101429Y-123317857D01*
X147172857Y-123603571D01*
X147172857Y-124103571D01*
X147101429Y-124389286D01*
X146958572Y-124532143D01*
X146815714Y-124603571D01*
X146530000Y-124603571D01*
X146387143Y-124532143D01*
X146244286Y-124389286D01*
X146172857Y-124103571D01*
X146172857Y-123603571D01*
X146244286Y-123317857D01*
X146387143Y-123175000D01*
X146530000Y-123103571D01*
X148601429Y-124603571D02*
X147744286Y-124603571D01*
X148172858Y-124603571D02*
X148172858Y-123103571D01*
X148030001Y-123317857D01*
X147887143Y-123460714D01*
X147744286Y-123532143D01*
X149530000Y-123103571D02*
X149672857Y-123103571D01*
X149815714Y-123175000D01*
X149887143Y-123246429D01*
X149958572Y-123389286D01*
X150030000Y-123675000D01*
X150030000Y-124032143D01*
X149958572Y-124317857D01*
X149887143Y-124460714D01*
X149815714Y-124532143D01*
X149672857Y-124603571D01*
X149530000Y-124603571D01*
X149387143Y-124532143D01*
X149315714Y-124460714D01*
X149244286Y-124317857D01*
X149172857Y-124032143D01*
X149172857Y-123675000D01*
X149244286Y-123389286D01*
X149315714Y-123246429D01*
X149387143Y-123175000D01*
X149530000Y-123103571D01*
X150744285Y-124532143D02*
X150744285Y-124603571D01*
X150672857Y-124746429D01*
X150601428Y-124817857D01*
X152244286Y-124460714D02*
X152172857Y-124532143D01*
X151958571Y-124603571D01*
X151815714Y-124603571D01*
X151601429Y-124532143D01*
X151458571Y-124389286D01*
X151387143Y-124246429D01*
X151315714Y-123960714D01*
X151315714Y-123746429D01*
X151387143Y-123460714D01*
X151458571Y-123317857D01*
X151601429Y-123175000D01*
X151815714Y-123103571D01*
X151958571Y-123103571D01*
X152172857Y-123175000D01*
X152244286Y-123246429D01*
X152815714Y-124532143D02*
X153030000Y-124603571D01*
X153387143Y-124603571D01*
X153530000Y-124532143D01*
X153601429Y-124460714D01*
X153672857Y-124317857D01*
X153672857Y-124175000D01*
X153601429Y-124032143D01*
X153530000Y-123960714D01*
X153387143Y-123889286D01*
X153101429Y-123817857D01*
X152958571Y-123746429D01*
X152887143Y-123675000D01*
X152815714Y-123532143D01*
X152815714Y-123389286D01*
X152887143Y-123246429D01*
X152958571Y-123175000D01*
X153101429Y-123103571D01*
X153458571Y-123103571D01*
X153672857Y-123175000D01*
X154958571Y-123103571D02*
X154672857Y-123103571D01*
X154530000Y-123175000D01*
X154458571Y-123246429D01*
X154315714Y-123460714D01*
X154244285Y-123746429D01*
X154244285Y-124317857D01*
X154315714Y-124460714D01*
X154387142Y-124532143D01*
X154530000Y-124603571D01*
X154815714Y-124603571D01*
X154958571Y-124532143D01*
X155030000Y-124460714D01*
X155101428Y-124317857D01*
X155101428Y-123960714D01*
X155030000Y-123817857D01*
X154958571Y-123746429D01*
X154815714Y-123675000D01*
X154530000Y-123675000D01*
X154387142Y-123746429D01*
X154315714Y-123817857D01*
X154244285Y-123960714D01*
X155744285Y-124032143D02*
X156887142Y-124032143D01*
X158387142Y-123175000D02*
X158244285Y-123103571D01*
X158029999Y-123103571D01*
X157815714Y-123175000D01*
X157672856Y-123317857D01*
X157601428Y-123460714D01*
X157529999Y-123746429D01*
X157529999Y-123960714D01*
X157601428Y-124246429D01*
X157672856Y-124389286D01*
X157815714Y-124532143D01*
X158029999Y-124603571D01*
X158172856Y-124603571D01*
X158387142Y-124532143D01*
X158458571Y-124460714D01*
X158458571Y-123960714D01*
X158172856Y-123960714D01*
X159101428Y-124603571D02*
X159101428Y-123103571D01*
X159672856Y-123103571D01*
X159815714Y-123175000D01*
X159887142Y-123246429D01*
X159958571Y-123389286D01*
X159958571Y-123603571D01*
X159887142Y-123746429D01*
X159815714Y-123817857D01*
X159672856Y-123889286D01*
X159101428Y-123889286D01*
X160601428Y-124603571D02*
X160601428Y-123103571D01*
X161601428Y-123103571D02*
X161887142Y-123103571D01*
X162030000Y-123175000D01*
X162172857Y-123317857D01*
X162244285Y-123603571D01*
X162244285Y-124103571D01*
X162172857Y-124389286D01*
X162030000Y-124532143D01*
X161887142Y-124603571D01*
X161601428Y-124603571D01*
X161458571Y-124532143D01*
X161315714Y-124389286D01*
X161244285Y-124103571D01*
X161244285Y-123603571D01*
X161315714Y-123317857D01*
X161458571Y-123175000D01*
X161601428Y-123103571D01*
X163601429Y-123103571D02*
X162887143Y-123103571D01*
X162815714Y-123817857D01*
X162887143Y-123746429D01*
X163030000Y-123675000D01*
X163387143Y-123675000D01*
X163530000Y-123746429D01*
X163601429Y-123817857D01*
X163672857Y-123960714D01*
X163672857Y-124317857D01*
X163601429Y-124460714D01*
X163530000Y-124532143D01*
X163387143Y-124603571D01*
X163030000Y-124603571D01*
X162887143Y-124532143D01*
X162815714Y-124460714D01*
X164387142Y-124532143D02*
X164387142Y-124603571D01*
X164315714Y-124746429D01*
X164244285Y-124817857D01*
X165744286Y-124603571D02*
X165030000Y-124603571D01*
X165030000Y-123103571D01*
X166244286Y-123817857D02*
X166744286Y-123817857D01*
X166958572Y-124603571D02*
X166244286Y-124603571D01*
X166244286Y-123103571D01*
X166958572Y-123103571D01*
X167601429Y-124603571D02*
X167601429Y-123103571D01*
X167958572Y-123103571D01*
X168172857Y-123175000D01*
X168315715Y-123317857D01*
X168387143Y-123460714D01*
X168458572Y-123746429D01*
X168458572Y-123960714D01*
X168387143Y-124246429D01*
X168315715Y-124389286D01*
X168172857Y-124532143D01*
X167958572Y-124603571D01*
X167601429Y-124603571D01*
X169101429Y-124032143D02*
X170244286Y-124032143D01*
X171744286Y-123175000D02*
X171601429Y-123103571D01*
X171387143Y-123103571D01*
X171172858Y-123175000D01*
X171030000Y-123317857D01*
X170958572Y-123460714D01*
X170887143Y-123746429D01*
X170887143Y-123960714D01*
X170958572Y-124246429D01*
X171030000Y-124389286D01*
X171172858Y-124532143D01*
X171387143Y-124603571D01*
X171530000Y-124603571D01*
X171744286Y-124532143D01*
X171815715Y-124460714D01*
X171815715Y-123960714D01*
X171530000Y-123960714D01*
X172458572Y-124603571D02*
X172458572Y-123103571D01*
X173030000Y-123103571D01*
X173172858Y-123175000D01*
X173244286Y-123246429D01*
X173315715Y-123389286D01*
X173315715Y-123603571D01*
X173244286Y-123746429D01*
X173172858Y-123817857D01*
X173030000Y-123889286D01*
X172458572Y-123889286D01*
X173958572Y-124603571D02*
X173958572Y-123103571D01*
X174958572Y-123103571D02*
X175244286Y-123103571D01*
X175387144Y-123175000D01*
X175530001Y-123317857D01*
X175601429Y-123603571D01*
X175601429Y-124103571D01*
X175530001Y-124389286D01*
X175387144Y-124532143D01*
X175244286Y-124603571D01*
X174958572Y-124603571D01*
X174815715Y-124532143D01*
X174672858Y-124389286D01*
X174601429Y-124103571D01*
X174601429Y-123603571D01*
X174672858Y-123317857D01*
X174815715Y-123175000D01*
X174958572Y-123103571D01*
X176172858Y-123246429D02*
X176244287Y-123175000D01*
X176387144Y-123103571D01*
X176744287Y-123103571D01*
X176887144Y-123175000D01*
X176958573Y-123246429D01*
X177030001Y-123389286D01*
X177030001Y-123532143D01*
X176958573Y-123746429D01*
X176101430Y-124603571D01*
X177030001Y-124603571D01*
X177958572Y-123103571D02*
X178101429Y-123103571D01*
X178244286Y-123175000D01*
X178315715Y-123246429D01*
X178387144Y-123389286D01*
X178458572Y-123675000D01*
X178458572Y-124032143D01*
X178387144Y-124317857D01*
X178315715Y-124460714D01*
X178244286Y-124532143D01*
X178101429Y-124603571D01*
X177958572Y-124603571D01*
X177815715Y-124532143D01*
X177744286Y-124460714D01*
X177672858Y-124317857D01*
X177601429Y-124032143D01*
X177601429Y-123675000D01*
X177672858Y-123389286D01*
X177744286Y-123246429D01*
X177815715Y-123175000D01*
X177958572Y-123103571D01*
X126065714Y-126367857D02*
X126280000Y-126439286D01*
X126351428Y-126510714D01*
X126422857Y-126653571D01*
X126422857Y-126867857D01*
X126351428Y-127010714D01*
X126280000Y-127082143D01*
X126137142Y-127153571D01*
X125565714Y-127153571D01*
X125565714Y-125653571D01*
X126065714Y-125653571D01*
X126208571Y-125725000D01*
X126280000Y-125796429D01*
X126351428Y-125939286D01*
X126351428Y-126082143D01*
X126280000Y-126225000D01*
X126208571Y-126296429D01*
X126065714Y-126367857D01*
X125565714Y-126367857D01*
X127065714Y-125653571D02*
X127065714Y-126867857D01*
X127137142Y-127010714D01*
X127208571Y-127082143D01*
X127351428Y-127153571D01*
X127637142Y-127153571D01*
X127780000Y-127082143D01*
X127851428Y-127010714D01*
X127922857Y-126867857D01*
X127922857Y-125653571D01*
X128422857Y-125653571D02*
X129280000Y-125653571D01*
X128851429Y-127153571D02*
X128851429Y-125653571D01*
X129565714Y-125653571D02*
X130422857Y-125653571D01*
X129994286Y-127153571D02*
X129994286Y-125653571D01*
X131208571Y-125653571D02*
X131494285Y-125653571D01*
X131637143Y-125725000D01*
X131780000Y-125867857D01*
X131851428Y-126153571D01*
X131851428Y-126653571D01*
X131780000Y-126939286D01*
X131637143Y-127082143D01*
X131494285Y-127153571D01*
X131208571Y-127153571D01*
X131065714Y-127082143D01*
X130922857Y-126939286D01*
X130851428Y-126653571D01*
X130851428Y-126153571D01*
X130922857Y-125867857D01*
X131065714Y-125725000D01*
X131208571Y-125653571D01*
X132494286Y-127153571D02*
X132494286Y-125653571D01*
X133351429Y-127153571D01*
X133351429Y-125653571D01*
X134065715Y-126582143D02*
X135208572Y-126582143D01*
X136708572Y-125725000D02*
X136565715Y-125653571D01*
X136351429Y-125653571D01*
X136137144Y-125725000D01*
X135994286Y-125867857D01*
X135922858Y-126010714D01*
X135851429Y-126296429D01*
X135851429Y-126510714D01*
X135922858Y-126796429D01*
X135994286Y-126939286D01*
X136137144Y-127082143D01*
X136351429Y-127153571D01*
X136494286Y-127153571D01*
X136708572Y-127082143D01*
X136780001Y-127010714D01*
X136780001Y-126510714D01*
X136494286Y-126510714D01*
X137422858Y-127153571D02*
X137422858Y-125653571D01*
X137994286Y-125653571D01*
X138137144Y-125725000D01*
X138208572Y-125796429D01*
X138280001Y-125939286D01*
X138280001Y-126153571D01*
X138208572Y-126296429D01*
X138137144Y-126367857D01*
X137994286Y-126439286D01*
X137422858Y-126439286D01*
X138922858Y-127153571D02*
X138922858Y-125653571D01*
X139922858Y-125653571D02*
X140208572Y-125653571D01*
X140351430Y-125725000D01*
X140494287Y-125867857D01*
X140565715Y-126153571D01*
X140565715Y-126653571D01*
X140494287Y-126939286D01*
X140351430Y-127082143D01*
X140208572Y-127153571D01*
X139922858Y-127153571D01*
X139780001Y-127082143D01*
X139637144Y-126939286D01*
X139565715Y-126653571D01*
X139565715Y-126153571D01*
X139637144Y-125867857D01*
X139780001Y-125725000D01*
X139922858Y-125653571D01*
X141994287Y-127153571D02*
X141137144Y-127153571D01*
X141565716Y-127153571D02*
X141565716Y-125653571D01*
X141422859Y-125867857D01*
X141280001Y-126010714D01*
X141137144Y-126082143D01*
X143280001Y-126153571D02*
X143280001Y-127153571D01*
X142922858Y-125582143D02*
X142565715Y-126653571D01*
X143494287Y-126653571D01*
X144137143Y-127082143D02*
X144137143Y-127153571D01*
X144065715Y-127296429D01*
X143994286Y-127367857D01*
X145637144Y-127153571D02*
X145137144Y-126439286D01*
X144780001Y-127153571D02*
X144780001Y-125653571D01*
X145351429Y-125653571D01*
X145494287Y-125725000D01*
X145565715Y-125796429D01*
X145637144Y-125939286D01*
X145637144Y-126153571D01*
X145565715Y-126296429D01*
X145494287Y-126367857D01*
X145351429Y-126439286D01*
X144780001Y-126439286D01*
X146280001Y-126367857D02*
X146780001Y-126367857D01*
X146994287Y-127153571D02*
X146280001Y-127153571D01*
X146280001Y-125653571D01*
X146994287Y-125653571D01*
X147565715Y-127082143D02*
X147780001Y-127153571D01*
X148137144Y-127153571D01*
X148280001Y-127082143D01*
X148351430Y-127010714D01*
X148422858Y-126867857D01*
X148422858Y-126725000D01*
X148351430Y-126582143D01*
X148280001Y-126510714D01*
X148137144Y-126439286D01*
X147851430Y-126367857D01*
X147708572Y-126296429D01*
X147637144Y-126225000D01*
X147565715Y-126082143D01*
X147565715Y-125939286D01*
X147637144Y-125796429D01*
X147708572Y-125725000D01*
X147851430Y-125653571D01*
X148208572Y-125653571D01*
X148422858Y-125725000D01*
X149065715Y-126367857D02*
X149565715Y-126367857D01*
X149780001Y-127153571D02*
X149065715Y-127153571D01*
X149065715Y-125653571D01*
X149780001Y-125653571D01*
X150208572Y-125653571D02*
X151065715Y-125653571D01*
X150637144Y-127153571D02*
X150637144Y-125653571D01*
X151565715Y-126582143D02*
X152708572Y-126582143D01*
X154208572Y-125725000D02*
X154065715Y-125653571D01*
X153851429Y-125653571D01*
X153637144Y-125725000D01*
X153494286Y-125867857D01*
X153422858Y-126010714D01*
X153351429Y-126296429D01*
X153351429Y-126510714D01*
X153422858Y-126796429D01*
X153494286Y-126939286D01*
X153637144Y-127082143D01*
X153851429Y-127153571D01*
X153994286Y-127153571D01*
X154208572Y-127082143D01*
X154280001Y-127010714D01*
X154280001Y-126510714D01*
X153994286Y-126510714D01*
X154922858Y-127153571D02*
X154922858Y-125653571D01*
X155494286Y-125653571D01*
X155637144Y-125725000D01*
X155708572Y-125796429D01*
X155780001Y-125939286D01*
X155780001Y-126153571D01*
X155708572Y-126296429D01*
X155637144Y-126367857D01*
X155494286Y-126439286D01*
X154922858Y-126439286D01*
X156422858Y-127153571D02*
X156422858Y-125653571D01*
X157422858Y-125653571D02*
X157708572Y-125653571D01*
X157851430Y-125725000D01*
X157994287Y-125867857D01*
X158065715Y-126153571D01*
X158065715Y-126653571D01*
X157994287Y-126939286D01*
X157851430Y-127082143D01*
X157708572Y-127153571D01*
X157422858Y-127153571D01*
X157280001Y-127082143D01*
X157137144Y-126939286D01*
X157065715Y-126653571D01*
X157065715Y-126153571D01*
X157137144Y-125867857D01*
X157280001Y-125725000D01*
X157422858Y-125653571D01*
X159494287Y-127153571D02*
X158637144Y-127153571D01*
X159065716Y-127153571D02*
X159065716Y-125653571D01*
X158922859Y-125867857D01*
X158780001Y-126010714D01*
X158637144Y-126082143D01*
X160065715Y-125796429D02*
X160137144Y-125725000D01*
X160280001Y-125653571D01*
X160637144Y-125653571D01*
X160780001Y-125725000D01*
X160851430Y-125796429D01*
X160922858Y-125939286D01*
X160922858Y-126082143D01*
X160851430Y-126296429D01*
X159994287Y-127153571D01*
X160922858Y-127153571D01*
X161637143Y-127082143D02*
X161637143Y-127153571D01*
X161565715Y-127296429D01*
X161494286Y-127367857D01*
X162137144Y-125653571D02*
X162494287Y-127153571D01*
X162780001Y-126082143D01*
X163065715Y-127153571D01*
X163422858Y-125653571D01*
X163994287Y-127153571D02*
X163994287Y-125653571D01*
X164565715Y-125653571D01*
X164708573Y-125725000D01*
X164780001Y-125796429D01*
X164851430Y-125939286D01*
X164851430Y-126153571D01*
X164780001Y-126296429D01*
X164708573Y-126367857D01*
X164565715Y-126439286D01*
X163994287Y-126439286D01*
X165494287Y-126582143D02*
X166637144Y-126582143D01*
X168137144Y-125725000D02*
X167994287Y-125653571D01*
X167780001Y-125653571D01*
X167565716Y-125725000D01*
X167422858Y-125867857D01*
X167351430Y-126010714D01*
X167280001Y-126296429D01*
X167280001Y-126510714D01*
X167351430Y-126796429D01*
X167422858Y-126939286D01*
X167565716Y-127082143D01*
X167780001Y-127153571D01*
X167922858Y-127153571D01*
X168137144Y-127082143D01*
X168208573Y-127010714D01*
X168208573Y-126510714D01*
X167922858Y-126510714D01*
X168851430Y-127153571D02*
X168851430Y-125653571D01*
X169422858Y-125653571D01*
X169565716Y-125725000D01*
X169637144Y-125796429D01*
X169708573Y-125939286D01*
X169708573Y-126153571D01*
X169637144Y-126296429D01*
X169565716Y-126367857D01*
X169422858Y-126439286D01*
X168851430Y-126439286D01*
X170351430Y-127153571D02*
X170351430Y-125653571D01*
X171351430Y-125653571D02*
X171637144Y-125653571D01*
X171780002Y-125725000D01*
X171922859Y-125867857D01*
X171994287Y-126153571D01*
X171994287Y-126653571D01*
X171922859Y-126939286D01*
X171780002Y-127082143D01*
X171637144Y-127153571D01*
X171351430Y-127153571D01*
X171208573Y-127082143D01*
X171065716Y-126939286D01*
X170994287Y-126653571D01*
X170994287Y-126153571D01*
X171065716Y-125867857D01*
X171208573Y-125725000D01*
X171351430Y-125653571D01*
X173422859Y-127153571D02*
X172565716Y-127153571D01*
X172994288Y-127153571D02*
X172994288Y-125653571D01*
X172851431Y-125867857D01*
X172708573Y-126010714D01*
X172565716Y-126082143D01*
X173922859Y-125653571D02*
X174851430Y-125653571D01*
X174351430Y-126225000D01*
X174565716Y-126225000D01*
X174708573Y-126296429D01*
X174780002Y-126367857D01*
X174851430Y-126510714D01*
X174851430Y-126867857D01*
X174780002Y-127010714D01*
X174708573Y-127082143D01*
X174565716Y-127153571D01*
X174137144Y-127153571D01*
X173994287Y-127082143D01*
X173922859Y-127010714D01*
X175565715Y-127082143D02*
X175565715Y-127153571D01*
X175494287Y-127296429D01*
X175422858Y-127367857D01*
X122494284Y-129632143D02*
X122708570Y-129703571D01*
X123065713Y-129703571D01*
X123208570Y-129632143D01*
X123279999Y-129560714D01*
X123351427Y-129417857D01*
X123351427Y-129275000D01*
X123279999Y-129132143D01*
X123208570Y-129060714D01*
X123065713Y-128989286D01*
X122779999Y-128917857D01*
X122637141Y-128846429D01*
X122565713Y-128775000D01*
X122494284Y-128632143D01*
X122494284Y-128489286D01*
X122565713Y-128346429D01*
X122637141Y-128275000D01*
X122779999Y-128203571D01*
X123137141Y-128203571D01*
X123351427Y-128275000D01*
X124851427Y-129560714D02*
X124779998Y-129632143D01*
X124565712Y-129703571D01*
X124422855Y-129703571D01*
X124208570Y-129632143D01*
X124065712Y-129489286D01*
X123994284Y-129346429D01*
X123922855Y-129060714D01*
X123922855Y-128846429D01*
X123994284Y-128560714D01*
X124065712Y-128417857D01*
X124208570Y-128275000D01*
X124422855Y-128203571D01*
X124565712Y-128203571D01*
X124779998Y-128275000D01*
X124851427Y-128346429D01*
X126208570Y-129703571D02*
X125494284Y-129703571D01*
X125494284Y-128203571D01*
X126708570Y-129703571D02*
X126708570Y-128203571D01*
X127565713Y-129703571D02*
X126922856Y-128846429D01*
X127565713Y-128203571D02*
X126708570Y-129060714D01*
X128208570Y-129132143D02*
X129351427Y-129132143D01*
X130851427Y-128275000D02*
X130708570Y-128203571D01*
X130494284Y-128203571D01*
X130279999Y-128275000D01*
X130137141Y-128417857D01*
X130065713Y-128560714D01*
X129994284Y-128846429D01*
X129994284Y-129060714D01*
X130065713Y-129346429D01*
X130137141Y-129489286D01*
X130279999Y-129632143D01*
X130494284Y-129703571D01*
X130637141Y-129703571D01*
X130851427Y-129632143D01*
X130922856Y-129560714D01*
X130922856Y-129060714D01*
X130637141Y-129060714D01*
X131565713Y-129703571D02*
X131565713Y-128203571D01*
X132137141Y-128203571D01*
X132279999Y-128275000D01*
X132351427Y-128346429D01*
X132422856Y-128489286D01*
X132422856Y-128703571D01*
X132351427Y-128846429D01*
X132279999Y-128917857D01*
X132137141Y-128989286D01*
X131565713Y-128989286D01*
X133065713Y-129703571D02*
X133065713Y-128203571D01*
X134065713Y-128203571D02*
X134351427Y-128203571D01*
X134494285Y-128275000D01*
X134637142Y-128417857D01*
X134708570Y-128703571D01*
X134708570Y-129203571D01*
X134637142Y-129489286D01*
X134494285Y-129632143D01*
X134351427Y-129703571D01*
X134065713Y-129703571D01*
X133922856Y-129632143D01*
X133779999Y-129489286D01*
X133708570Y-129203571D01*
X133708570Y-128703571D01*
X133779999Y-128417857D01*
X133922856Y-128275000D01*
X134065713Y-128203571D01*
X135994285Y-128203571D02*
X135708571Y-128203571D01*
X135565714Y-128275000D01*
X135494285Y-128346429D01*
X135351428Y-128560714D01*
X135279999Y-128846429D01*
X135279999Y-129417857D01*
X135351428Y-129560714D01*
X135422856Y-129632143D01*
X135565714Y-129703571D01*
X135851428Y-129703571D01*
X135994285Y-129632143D01*
X136065714Y-129560714D01*
X136137142Y-129417857D01*
X136137142Y-129060714D01*
X136065714Y-128917857D01*
X135994285Y-128846429D01*
X135851428Y-128775000D01*
X135565714Y-128775000D01*
X135422856Y-128846429D01*
X135351428Y-128917857D01*
X135279999Y-129060714D01*
X136851427Y-129632143D02*
X136851427Y-129703571D01*
X136779999Y-129846429D01*
X136708570Y-129917857D01*
X137494285Y-129703571D02*
X137494285Y-128203571D01*
X137851428Y-128203571D01*
X138065713Y-128275000D01*
X138208571Y-128417857D01*
X138279999Y-128560714D01*
X138351428Y-128846429D01*
X138351428Y-129060714D01*
X138279999Y-129346429D01*
X138208571Y-129489286D01*
X138065713Y-129632143D01*
X137851428Y-129703571D01*
X137494285Y-129703571D01*
X138994285Y-129703571D02*
X138994285Y-128203571D01*
X140565714Y-129703571D02*
X140065714Y-128989286D01*
X139708571Y-129703571D02*
X139708571Y-128203571D01*
X140279999Y-128203571D01*
X140422857Y-128275000D01*
X140494285Y-128346429D01*
X140565714Y-128489286D01*
X140565714Y-128703571D01*
X140494285Y-128846429D01*
X140422857Y-128917857D01*
X140279999Y-128989286D01*
X139708571Y-128989286D01*
X141208571Y-129132143D02*
X142351428Y-129132143D01*
X143851428Y-128275000D02*
X143708571Y-128203571D01*
X143494285Y-128203571D01*
X143280000Y-128275000D01*
X143137142Y-128417857D01*
X143065714Y-128560714D01*
X142994285Y-128846429D01*
X142994285Y-129060714D01*
X143065714Y-129346429D01*
X143137142Y-129489286D01*
X143280000Y-129632143D01*
X143494285Y-129703571D01*
X143637142Y-129703571D01*
X143851428Y-129632143D01*
X143922857Y-129560714D01*
X143922857Y-129060714D01*
X143637142Y-129060714D01*
X144565714Y-129703571D02*
X144565714Y-128203571D01*
X145137142Y-128203571D01*
X145280000Y-128275000D01*
X145351428Y-128346429D01*
X145422857Y-128489286D01*
X145422857Y-128703571D01*
X145351428Y-128846429D01*
X145280000Y-128917857D01*
X145137142Y-128989286D01*
X144565714Y-128989286D01*
X146065714Y-129703571D02*
X146065714Y-128203571D01*
X147065714Y-128203571D02*
X147351428Y-128203571D01*
X147494286Y-128275000D01*
X147637143Y-128417857D01*
X147708571Y-128703571D01*
X147708571Y-129203571D01*
X147637143Y-129489286D01*
X147494286Y-129632143D01*
X147351428Y-129703571D01*
X147065714Y-129703571D01*
X146922857Y-129632143D01*
X146780000Y-129489286D01*
X146708571Y-129203571D01*
X146708571Y-128703571D01*
X146780000Y-128417857D01*
X146922857Y-128275000D01*
X147065714Y-128203571D01*
X148994286Y-128703571D02*
X148994286Y-129703571D01*
X148637143Y-128132143D02*
X148280000Y-129203571D01*
X149208572Y-129203571D01*
X149851428Y-129632143D02*
X149851428Y-129703571D01*
X149780000Y-129846429D01*
X149708571Y-129917857D01*
X150494286Y-129703571D02*
X150494286Y-128203571D01*
X150994286Y-129275000D01*
X151494286Y-128203571D01*
X151494286Y-129703571D01*
X152494286Y-128203571D02*
X152780000Y-128203571D01*
X152922858Y-128275000D01*
X153065715Y-128417857D01*
X153137143Y-128703571D01*
X153137143Y-129203571D01*
X153065715Y-129489286D01*
X152922858Y-129632143D01*
X152780000Y-129703571D01*
X152494286Y-129703571D01*
X152351429Y-129632143D01*
X152208572Y-129489286D01*
X152137143Y-129203571D01*
X152137143Y-128703571D01*
X152208572Y-128417857D01*
X152351429Y-128275000D01*
X152494286Y-128203571D01*
X153708572Y-129632143D02*
X153922858Y-129703571D01*
X154280001Y-129703571D01*
X154422858Y-129632143D01*
X154494287Y-129560714D01*
X154565715Y-129417857D01*
X154565715Y-129275000D01*
X154494287Y-129132143D01*
X154422858Y-129060714D01*
X154280001Y-128989286D01*
X153994287Y-128917857D01*
X153851429Y-128846429D01*
X153780001Y-128775000D01*
X153708572Y-128632143D01*
X153708572Y-128489286D01*
X153780001Y-128346429D01*
X153851429Y-128275000D01*
X153994287Y-128203571D01*
X154351429Y-128203571D01*
X154565715Y-128275000D01*
X155208572Y-129703571D02*
X155208572Y-128203571D01*
X155922858Y-129132143D02*
X157065715Y-129132143D01*
X158565715Y-128275000D02*
X158422858Y-128203571D01*
X158208572Y-128203571D01*
X157994287Y-128275000D01*
X157851429Y-128417857D01*
X157780001Y-128560714D01*
X157708572Y-128846429D01*
X157708572Y-129060714D01*
X157780001Y-129346429D01*
X157851429Y-129489286D01*
X157994287Y-129632143D01*
X158208572Y-129703571D01*
X158351429Y-129703571D01*
X158565715Y-129632143D01*
X158637144Y-129560714D01*
X158637144Y-129060714D01*
X158351429Y-129060714D01*
X159280001Y-129703571D02*
X159280001Y-128203571D01*
X159851429Y-128203571D01*
X159994287Y-128275000D01*
X160065715Y-128346429D01*
X160137144Y-128489286D01*
X160137144Y-128703571D01*
X160065715Y-128846429D01*
X159994287Y-128917857D01*
X159851429Y-128989286D01*
X159280001Y-128989286D01*
X160780001Y-129703571D02*
X160780001Y-128203571D01*
X161780001Y-128203571D02*
X162065715Y-128203571D01*
X162208573Y-128275000D01*
X162351430Y-128417857D01*
X162422858Y-128703571D01*
X162422858Y-129203571D01*
X162351430Y-129489286D01*
X162208573Y-129632143D01*
X162065715Y-129703571D01*
X161780001Y-129703571D01*
X161637144Y-129632143D01*
X161494287Y-129489286D01*
X161422858Y-129203571D01*
X161422858Y-128703571D01*
X161494287Y-128417857D01*
X161637144Y-128275000D01*
X161780001Y-128203571D01*
X163851430Y-129703571D02*
X162994287Y-129703571D01*
X163422859Y-129703571D02*
X163422859Y-128203571D01*
X163280002Y-128417857D01*
X163137144Y-128560714D01*
X162994287Y-128632143D01*
X164565715Y-129632143D02*
X164565715Y-129703571D01*
X164494287Y-129846429D01*
X164422858Y-129917857D01*
X165208573Y-129703571D02*
X165208573Y-128203571D01*
X165708573Y-129275000D01*
X166208573Y-128203571D01*
X166208573Y-129703571D01*
X166922859Y-129703571D02*
X166922859Y-128203571D01*
X167565716Y-129632143D02*
X167780002Y-129703571D01*
X168137145Y-129703571D01*
X168280002Y-129632143D01*
X168351431Y-129560714D01*
X168422859Y-129417857D01*
X168422859Y-129275000D01*
X168351431Y-129132143D01*
X168280002Y-129060714D01*
X168137145Y-128989286D01*
X167851431Y-128917857D01*
X167708573Y-128846429D01*
X167637145Y-128775000D01*
X167565716Y-128632143D01*
X167565716Y-128489286D01*
X167637145Y-128346429D01*
X167708573Y-128275000D01*
X167851431Y-128203571D01*
X168208573Y-128203571D01*
X168422859Y-128275000D01*
X169351430Y-128203571D02*
X169637144Y-128203571D01*
X169780002Y-128275000D01*
X169922859Y-128417857D01*
X169994287Y-128703571D01*
X169994287Y-129203571D01*
X169922859Y-129489286D01*
X169780002Y-129632143D01*
X169637144Y-129703571D01*
X169351430Y-129703571D01*
X169208573Y-129632143D01*
X169065716Y-129489286D01*
X168994287Y-129203571D01*
X168994287Y-128703571D01*
X169065716Y-128417857D01*
X169208573Y-128275000D01*
X169351430Y-128203571D01*
X170637145Y-129132143D02*
X171780002Y-129132143D01*
X173280002Y-128275000D02*
X173137145Y-128203571D01*
X172922859Y-128203571D01*
X172708574Y-128275000D01*
X172565716Y-128417857D01*
X172494288Y-128560714D01*
X172422859Y-128846429D01*
X172422859Y-129060714D01*
X172494288Y-129346429D01*
X172565716Y-129489286D01*
X172708574Y-129632143D01*
X172922859Y-129703571D01*
X173065716Y-129703571D01*
X173280002Y-129632143D01*
X173351431Y-129560714D01*
X173351431Y-129060714D01*
X173065716Y-129060714D01*
X173994288Y-129703571D02*
X173994288Y-128203571D01*
X174565716Y-128203571D01*
X174708574Y-128275000D01*
X174780002Y-128346429D01*
X174851431Y-128489286D01*
X174851431Y-128703571D01*
X174780002Y-128846429D01*
X174708574Y-128917857D01*
X174565716Y-128989286D01*
X173994288Y-128989286D01*
X175494288Y-129703571D02*
X175494288Y-128203571D01*
X176494288Y-128203571D02*
X176780002Y-128203571D01*
X176922860Y-128275000D01*
X177065717Y-128417857D01*
X177137145Y-128703571D01*
X177137145Y-129203571D01*
X177065717Y-129489286D01*
X176922860Y-129632143D01*
X176780002Y-129703571D01*
X176494288Y-129703571D01*
X176351431Y-129632143D01*
X176208574Y-129489286D01*
X176137145Y-129203571D01*
X176137145Y-128703571D01*
X176208574Y-128417857D01*
X176351431Y-128275000D01*
X176494288Y-128203571D01*
X177637146Y-128203571D02*
X178565717Y-128203571D01*
X178065717Y-128775000D01*
X178280003Y-128775000D01*
X178422860Y-128846429D01*
X178494289Y-128917857D01*
X178565717Y-129060714D01*
X178565717Y-129417857D01*
X178494289Y-129560714D01*
X178422860Y-129632143D01*
X178280003Y-129703571D01*
X177851431Y-129703571D01*
X177708574Y-129632143D01*
X177637146Y-129560714D01*
X122315713Y-132182143D02*
X122529999Y-132253571D01*
X122887142Y-132253571D01*
X123029999Y-132182143D01*
X123101428Y-132110714D01*
X123172856Y-131967857D01*
X123172856Y-131825000D01*
X123101428Y-131682143D01*
X123029999Y-131610714D01*
X122887142Y-131539286D01*
X122601428Y-131467857D01*
X122458570Y-131396429D01*
X122387142Y-131325000D01*
X122315713Y-131182143D01*
X122315713Y-131039286D01*
X122387142Y-130896429D01*
X122458570Y-130825000D01*
X122601428Y-130753571D01*
X122958570Y-130753571D01*
X123172856Y-130825000D01*
X123815713Y-132253571D02*
X123815713Y-130753571D01*
X124815713Y-130753571D02*
X125101427Y-130753571D01*
X125244285Y-130825000D01*
X125387142Y-130967857D01*
X125458570Y-131253571D01*
X125458570Y-131753571D01*
X125387142Y-132039286D01*
X125244285Y-132182143D01*
X125101427Y-132253571D01*
X124815713Y-132253571D01*
X124672856Y-132182143D01*
X124529999Y-132039286D01*
X124458570Y-131753571D01*
X124458570Y-131253571D01*
X124529999Y-130967857D01*
X124672856Y-130825000D01*
X124815713Y-130753571D01*
X126387142Y-130753571D02*
X126529999Y-130753571D01*
X126672856Y-130825000D01*
X126744285Y-130896429D01*
X126815714Y-131039286D01*
X126887142Y-131325000D01*
X126887142Y-131682143D01*
X126815714Y-131967857D01*
X126744285Y-132110714D01*
X126672856Y-132182143D01*
X126529999Y-132253571D01*
X126387142Y-132253571D01*
X126244285Y-132182143D01*
X126172856Y-132110714D01*
X126101428Y-131967857D01*
X126029999Y-131682143D01*
X126029999Y-131325000D01*
X126101428Y-131039286D01*
X126172856Y-130896429D01*
X126244285Y-130825000D01*
X126387142Y-130753571D01*
X127529999Y-131682143D02*
X128672856Y-131682143D01*
X130172856Y-130825000D02*
X130029999Y-130753571D01*
X129815713Y-130753571D01*
X129601428Y-130825000D01*
X129458570Y-130967857D01*
X129387142Y-131110714D01*
X129315713Y-131396429D01*
X129315713Y-131610714D01*
X129387142Y-131896429D01*
X129458570Y-132039286D01*
X129601428Y-132182143D01*
X129815713Y-132253571D01*
X129958570Y-132253571D01*
X130172856Y-132182143D01*
X130244285Y-132110714D01*
X130244285Y-131610714D01*
X129958570Y-131610714D01*
X130887142Y-132253571D02*
X130887142Y-130753571D01*
X131458570Y-130753571D01*
X131601428Y-130825000D01*
X131672856Y-130896429D01*
X131744285Y-131039286D01*
X131744285Y-131253571D01*
X131672856Y-131396429D01*
X131601428Y-131467857D01*
X131458570Y-131539286D01*
X130887142Y-131539286D01*
X132387142Y-132253571D02*
X132387142Y-130753571D01*
X133387142Y-130753571D02*
X133672856Y-130753571D01*
X133815714Y-130825000D01*
X133958571Y-130967857D01*
X134029999Y-131253571D01*
X134029999Y-131753571D01*
X133958571Y-132039286D01*
X133815714Y-132182143D01*
X133672856Y-132253571D01*
X133387142Y-132253571D01*
X133244285Y-132182143D01*
X133101428Y-132039286D01*
X133029999Y-131753571D01*
X133029999Y-131253571D01*
X133101428Y-130967857D01*
X133244285Y-130825000D01*
X133387142Y-130753571D01*
X135458571Y-132253571D02*
X134601428Y-132253571D01*
X135030000Y-132253571D02*
X135030000Y-130753571D01*
X134887143Y-130967857D01*
X134744285Y-131110714D01*
X134601428Y-131182143D01*
X136172856Y-132182143D02*
X136172856Y-132253571D01*
X136101428Y-132396429D01*
X136029999Y-132467857D01*
X136744285Y-132182143D02*
X136958571Y-132253571D01*
X137315714Y-132253571D01*
X137458571Y-132182143D01*
X137530000Y-132110714D01*
X137601428Y-131967857D01*
X137601428Y-131825000D01*
X137530000Y-131682143D01*
X137458571Y-131610714D01*
X137315714Y-131539286D01*
X137030000Y-131467857D01*
X136887142Y-131396429D01*
X136815714Y-131325000D01*
X136744285Y-131182143D01*
X136744285Y-131039286D01*
X136815714Y-130896429D01*
X136887142Y-130825000D01*
X137030000Y-130753571D01*
X137387142Y-130753571D01*
X137601428Y-130825000D01*
X138244285Y-132253571D02*
X138244285Y-130753571D01*
X139244285Y-130753571D02*
X139529999Y-130753571D01*
X139672857Y-130825000D01*
X139815714Y-130967857D01*
X139887142Y-131253571D01*
X139887142Y-131753571D01*
X139815714Y-132039286D01*
X139672857Y-132182143D01*
X139529999Y-132253571D01*
X139244285Y-132253571D01*
X139101428Y-132182143D01*
X138958571Y-132039286D01*
X138887142Y-131753571D01*
X138887142Y-131253571D01*
X138958571Y-130967857D01*
X139101428Y-130825000D01*
X139244285Y-130753571D01*
X141315714Y-132253571D02*
X140458571Y-132253571D01*
X140887143Y-132253571D02*
X140887143Y-130753571D01*
X140744286Y-130967857D01*
X140601428Y-131110714D01*
X140458571Y-131182143D01*
X141958571Y-131682143D02*
X143101428Y-131682143D01*
X144601428Y-130825000D02*
X144458571Y-130753571D01*
X144244285Y-130753571D01*
X144030000Y-130825000D01*
X143887142Y-130967857D01*
X143815714Y-131110714D01*
X143744285Y-131396429D01*
X143744285Y-131610714D01*
X143815714Y-131896429D01*
X143887142Y-132039286D01*
X144030000Y-132182143D01*
X144244285Y-132253571D01*
X144387142Y-132253571D01*
X144601428Y-132182143D01*
X144672857Y-132110714D01*
X144672857Y-131610714D01*
X144387142Y-131610714D01*
X145315714Y-132253571D02*
X145315714Y-130753571D01*
X145887142Y-130753571D01*
X146030000Y-130825000D01*
X146101428Y-130896429D01*
X146172857Y-131039286D01*
X146172857Y-131253571D01*
X146101428Y-131396429D01*
X146030000Y-131467857D01*
X145887142Y-131539286D01*
X145315714Y-131539286D01*
X146815714Y-132253571D02*
X146815714Y-130753571D01*
X147815714Y-130753571D02*
X148101428Y-130753571D01*
X148244286Y-130825000D01*
X148387143Y-130967857D01*
X148458571Y-131253571D01*
X148458571Y-131753571D01*
X148387143Y-132039286D01*
X148244286Y-132182143D01*
X148101428Y-132253571D01*
X147815714Y-132253571D01*
X147672857Y-132182143D01*
X147530000Y-132039286D01*
X147458571Y-131753571D01*
X147458571Y-131253571D01*
X147530000Y-130967857D01*
X147672857Y-130825000D01*
X147815714Y-130753571D01*
X148958572Y-130753571D02*
X149887143Y-130753571D01*
X149387143Y-131325000D01*
X149601429Y-131325000D01*
X149744286Y-131396429D01*
X149815715Y-131467857D01*
X149887143Y-131610714D01*
X149887143Y-131967857D01*
X149815715Y-132110714D01*
X149744286Y-132182143D01*
X149601429Y-132253571D01*
X149172857Y-132253571D01*
X149030000Y-132182143D01*
X148958572Y-132110714D01*
X150601428Y-132182143D02*
X150601428Y-132253571D01*
X150530000Y-132396429D01*
X150458571Y-132467857D01*
X151172857Y-132182143D02*
X151387143Y-132253571D01*
X151744286Y-132253571D01*
X151887143Y-132182143D01*
X151958572Y-132110714D01*
X152030000Y-131967857D01*
X152030000Y-131825000D01*
X151958572Y-131682143D01*
X151887143Y-131610714D01*
X151744286Y-131539286D01*
X151458572Y-131467857D01*
X151315714Y-131396429D01*
X151244286Y-131325000D01*
X151172857Y-131182143D01*
X151172857Y-131039286D01*
X151244286Y-130896429D01*
X151315714Y-130825000D01*
X151458572Y-130753571D01*
X151815714Y-130753571D01*
X152030000Y-130825000D01*
X152672857Y-132253571D02*
X152672857Y-130753571D01*
X153672857Y-130753571D02*
X153958571Y-130753571D01*
X154101429Y-130825000D01*
X154244286Y-130967857D01*
X154315714Y-131253571D01*
X154315714Y-131753571D01*
X154244286Y-132039286D01*
X154101429Y-132182143D01*
X153958571Y-132253571D01*
X153672857Y-132253571D01*
X153530000Y-132182143D01*
X153387143Y-132039286D01*
X153315714Y-131753571D01*
X153315714Y-131253571D01*
X153387143Y-130967857D01*
X153530000Y-130825000D01*
X153672857Y-130753571D01*
X154887143Y-130896429D02*
X154958572Y-130825000D01*
X155101429Y-130753571D01*
X155458572Y-130753571D01*
X155601429Y-130825000D01*
X155672858Y-130896429D01*
X155744286Y-131039286D01*
X155744286Y-131182143D01*
X155672858Y-131396429D01*
X154815715Y-132253571D01*
X155744286Y-132253571D01*
X156387143Y-131682143D02*
X157530000Y-131682143D01*
X159030000Y-130825000D02*
X158887143Y-130753571D01*
X158672857Y-130753571D01*
X158458572Y-130825000D01*
X158315714Y-130967857D01*
X158244286Y-131110714D01*
X158172857Y-131396429D01*
X158172857Y-131610714D01*
X158244286Y-131896429D01*
X158315714Y-132039286D01*
X158458572Y-132182143D01*
X158672857Y-132253571D01*
X158815714Y-132253571D01*
X159030000Y-132182143D01*
X159101429Y-132110714D01*
X159101429Y-131610714D01*
X158815714Y-131610714D01*
X159744286Y-132253571D02*
X159744286Y-130753571D01*
X160315714Y-130753571D01*
X160458572Y-130825000D01*
X160530000Y-130896429D01*
X160601429Y-131039286D01*
X160601429Y-131253571D01*
X160530000Y-131396429D01*
X160458572Y-131467857D01*
X160315714Y-131539286D01*
X159744286Y-131539286D01*
X161244286Y-132253571D02*
X161244286Y-130753571D01*
X162244286Y-130753571D02*
X162530000Y-130753571D01*
X162672858Y-130825000D01*
X162815715Y-130967857D01*
X162887143Y-131253571D01*
X162887143Y-131753571D01*
X162815715Y-132039286D01*
X162672858Y-132182143D01*
X162530000Y-132253571D01*
X162244286Y-132253571D01*
X162101429Y-132182143D01*
X161958572Y-132039286D01*
X161887143Y-131753571D01*
X161887143Y-131253571D01*
X161958572Y-130967857D01*
X162101429Y-130825000D01*
X162244286Y-130753571D01*
X163458572Y-130896429D02*
X163530001Y-130825000D01*
X163672858Y-130753571D01*
X164030001Y-130753571D01*
X164172858Y-130825000D01*
X164244287Y-130896429D01*
X164315715Y-131039286D01*
X164315715Y-131182143D01*
X164244287Y-131396429D01*
X163387144Y-132253571D01*
X164315715Y-132253571D01*
X165030000Y-132182143D02*
X165030000Y-132253571D01*
X164958572Y-132396429D01*
X164887143Y-132467857D01*
X165601429Y-132182143D02*
X165815715Y-132253571D01*
X166172858Y-132253571D01*
X166315715Y-132182143D01*
X166387144Y-132110714D01*
X166458572Y-131967857D01*
X166458572Y-131825000D01*
X166387144Y-131682143D01*
X166315715Y-131610714D01*
X166172858Y-131539286D01*
X165887144Y-131467857D01*
X165744286Y-131396429D01*
X165672858Y-131325000D01*
X165601429Y-131182143D01*
X165601429Y-131039286D01*
X165672858Y-130896429D01*
X165744286Y-130825000D01*
X165887144Y-130753571D01*
X166244286Y-130753571D01*
X166458572Y-130825000D01*
X167101429Y-132253571D02*
X167101429Y-130753571D01*
X168101429Y-130753571D02*
X168387143Y-130753571D01*
X168530001Y-130825000D01*
X168672858Y-130967857D01*
X168744286Y-131253571D01*
X168744286Y-131753571D01*
X168672858Y-132039286D01*
X168530001Y-132182143D01*
X168387143Y-132253571D01*
X168101429Y-132253571D01*
X167958572Y-132182143D01*
X167815715Y-132039286D01*
X167744286Y-131753571D01*
X167744286Y-131253571D01*
X167815715Y-130967857D01*
X167958572Y-130825000D01*
X168101429Y-130753571D01*
X169244287Y-130753571D02*
X170172858Y-130753571D01*
X169672858Y-131325000D01*
X169887144Y-131325000D01*
X170030001Y-131396429D01*
X170101430Y-131467857D01*
X170172858Y-131610714D01*
X170172858Y-131967857D01*
X170101430Y-132110714D01*
X170030001Y-132182143D01*
X169887144Y-132253571D01*
X169458572Y-132253571D01*
X169315715Y-132182143D01*
X169244287Y-132110714D01*
X170815715Y-131682143D02*
X171958572Y-131682143D01*
X173458572Y-130825000D02*
X173315715Y-130753571D01*
X173101429Y-130753571D01*
X172887144Y-130825000D01*
X172744286Y-130967857D01*
X172672858Y-131110714D01*
X172601429Y-131396429D01*
X172601429Y-131610714D01*
X172672858Y-131896429D01*
X172744286Y-132039286D01*
X172887144Y-132182143D01*
X173101429Y-132253571D01*
X173244286Y-132253571D01*
X173458572Y-132182143D01*
X173530001Y-132110714D01*
X173530001Y-131610714D01*
X173244286Y-131610714D01*
X174172858Y-132253571D02*
X174172858Y-130753571D01*
X174744286Y-130753571D01*
X174887144Y-130825000D01*
X174958572Y-130896429D01*
X175030001Y-131039286D01*
X175030001Y-131253571D01*
X174958572Y-131396429D01*
X174887144Y-131467857D01*
X174744286Y-131539286D01*
X174172858Y-131539286D01*
X175672858Y-132253571D02*
X175672858Y-130753571D01*
X176672858Y-130753571D02*
X176958572Y-130753571D01*
X177101430Y-130825000D01*
X177244287Y-130967857D01*
X177315715Y-131253571D01*
X177315715Y-131753571D01*
X177244287Y-132039286D01*
X177101430Y-132182143D01*
X176958572Y-132253571D01*
X176672858Y-132253571D01*
X176530001Y-132182143D01*
X176387144Y-132039286D01*
X176315715Y-131753571D01*
X176315715Y-131253571D01*
X176387144Y-130967857D01*
X176530001Y-130825000D01*
X176672858Y-130753571D01*
X178244287Y-130753571D02*
X178387144Y-130753571D01*
X178530001Y-130825000D01*
X178601430Y-130896429D01*
X178672859Y-131039286D01*
X178744287Y-131325000D01*
X178744287Y-131682143D01*
X178672859Y-131967857D01*
X178601430Y-132110714D01*
X178530001Y-132182143D01*
X178387144Y-132253571D01*
X178244287Y-132253571D01*
X178101430Y-132182143D01*
X178030001Y-132110714D01*
X177958573Y-131967857D01*
X177887144Y-131682143D01*
X177887144Y-131325000D01*
X177958573Y-131039286D01*
X178030001Y-130896429D01*
X178101430Y-130825000D01*
X178244287Y-130753571D01*
X118637857Y-115732857D02*
X118709286Y-115518571D01*
X118780714Y-115447143D01*
X118923571Y-115375714D01*
X119137857Y-115375714D01*
X119280714Y-115447143D01*
X119352143Y-115518571D01*
X119423571Y-115661429D01*
X119423571Y-116232857D01*
X117923571Y-116232857D01*
X117923571Y-115732857D01*
X117995000Y-115590000D01*
X118066429Y-115518571D01*
X118209286Y-115447143D01*
X118352143Y-115447143D01*
X118495000Y-115518571D01*
X118566429Y-115590000D01*
X118637857Y-115732857D01*
X118637857Y-116232857D01*
X119423571Y-114090000D02*
X118637857Y-114090000D01*
X118495000Y-114161429D01*
X118423571Y-114304286D01*
X118423571Y-114590000D01*
X118495000Y-114732857D01*
X119352143Y-114090000D02*
X119423571Y-114232857D01*
X119423571Y-114590000D01*
X119352143Y-114732857D01*
X119209286Y-114804286D01*
X119066429Y-114804286D01*
X118923571Y-114732857D01*
X118852143Y-114590000D01*
X118852143Y-114232857D01*
X118780714Y-114090000D01*
X118423571Y-113375714D02*
X119423571Y-113375714D01*
X118566429Y-113375714D02*
X118495000Y-113304286D01*
X118423571Y-113161428D01*
X118423571Y-112947143D01*
X118495000Y-112804286D01*
X118637857Y-112732857D01*
X119423571Y-112732857D01*
X119423571Y-111375714D02*
X118637857Y-111375714D01*
X118495000Y-111447143D01*
X118423571Y-111590000D01*
X118423571Y-111875714D01*
X118495000Y-112018571D01*
X119352143Y-111375714D02*
X119423571Y-111518571D01*
X119423571Y-111875714D01*
X119352143Y-112018571D01*
X119209286Y-112090000D01*
X119066429Y-112090000D01*
X118923571Y-112018571D01*
X118852143Y-111875714D01*
X118852143Y-111518571D01*
X118780714Y-111375714D01*
X118423571Y-110661428D02*
X119423571Y-110661428D01*
X118566429Y-110661428D02*
X118495000Y-110590000D01*
X118423571Y-110447142D01*
X118423571Y-110232857D01*
X118495000Y-110090000D01*
X118637857Y-110018571D01*
X119423571Y-110018571D01*
X119423571Y-108661428D02*
X118637857Y-108661428D01*
X118495000Y-108732857D01*
X118423571Y-108875714D01*
X118423571Y-109161428D01*
X118495000Y-109304285D01*
X119352143Y-108661428D02*
X119423571Y-108804285D01*
X119423571Y-109161428D01*
X119352143Y-109304285D01*
X119209286Y-109375714D01*
X119066429Y-109375714D01*
X118923571Y-109304285D01*
X118852143Y-109161428D01*
X118852143Y-108804285D01*
X118780714Y-108661428D01*
X119423571Y-106804285D02*
X117923571Y-106804285D01*
X117923571Y-106232857D01*
X117995000Y-106089999D01*
X118066429Y-106018571D01*
X118209286Y-105947142D01*
X118423571Y-105947142D01*
X118566429Y-106018571D01*
X118637857Y-106089999D01*
X118709286Y-106232857D01*
X118709286Y-106804285D01*
X119423571Y-105304285D02*
X118423571Y-105304285D01*
X117923571Y-105304285D02*
X117995000Y-105375714D01*
X118066429Y-105304285D01*
X117995000Y-105232857D01*
X117923571Y-105304285D01*
X118066429Y-105304285D01*
X118637857Y-102947142D02*
X118637857Y-103447142D01*
X119423571Y-103447142D02*
X117923571Y-103447142D01*
X117923571Y-102732856D01*
X119423571Y-101947142D02*
X119352143Y-102090000D01*
X119209286Y-102161428D01*
X117923571Y-102161428D01*
X119423571Y-100732857D02*
X118637857Y-100732857D01*
X118495000Y-100804286D01*
X118423571Y-100947143D01*
X118423571Y-101232857D01*
X118495000Y-101375714D01*
X119352143Y-100732857D02*
X119423571Y-100875714D01*
X119423571Y-101232857D01*
X119352143Y-101375714D01*
X119209286Y-101447143D01*
X119066429Y-101447143D01*
X118923571Y-101375714D01*
X118852143Y-101232857D01*
X118852143Y-100875714D01*
X118780714Y-100732857D01*
X119352143Y-100090000D02*
X119423571Y-99947143D01*
X119423571Y-99661428D01*
X119352143Y-99518571D01*
X119209286Y-99447143D01*
X119137857Y-99447143D01*
X118995000Y-99518571D01*
X118923571Y-99661428D01*
X118923571Y-99875714D01*
X118852143Y-100018571D01*
X118709286Y-100090000D01*
X118637857Y-100090000D01*
X118495000Y-100018571D01*
X118423571Y-99875714D01*
X118423571Y-99661428D01*
X118495000Y-99518571D01*
X119423571Y-98804285D02*
X117923571Y-98804285D01*
X119423571Y-98161428D02*
X118637857Y-98161428D01*
X118495000Y-98232857D01*
X118423571Y-98375714D01*
X118423571Y-98589999D01*
X118495000Y-98732857D01*
X118566429Y-98804285D01*
X119423571Y-96304285D02*
X117923571Y-96304285D01*
X118995000Y-95804285D01*
X117923571Y-95304285D01*
X119423571Y-95304285D01*
X119352143Y-94018571D02*
X119423571Y-94161428D01*
X119423571Y-94447142D01*
X119352143Y-94589999D01*
X119209286Y-94661428D01*
X118637857Y-94661428D01*
X118495000Y-94589999D01*
X118423571Y-94447142D01*
X118423571Y-94161428D01*
X118495000Y-94018571D01*
X118637857Y-93947142D01*
X118780714Y-93947142D01*
X118923571Y-94661428D01*
X119423571Y-93304285D02*
X118423571Y-93304285D01*
X118566429Y-93304285D02*
X118495000Y-93232857D01*
X118423571Y-93089999D01*
X118423571Y-92875714D01*
X118495000Y-92732857D01*
X118637857Y-92661428D01*
X119423571Y-92661428D01*
X118637857Y-92661428D02*
X118495000Y-92589999D01*
X118423571Y-92447142D01*
X118423571Y-92232857D01*
X118495000Y-92089999D01*
X118637857Y-92018571D01*
X119423571Y-92018571D01*
X119423571Y-91089999D02*
X119352143Y-91232857D01*
X119280714Y-91304285D01*
X119137857Y-91375714D01*
X118709286Y-91375714D01*
X118566429Y-91304285D01*
X118495000Y-91232857D01*
X118423571Y-91089999D01*
X118423571Y-90875714D01*
X118495000Y-90732857D01*
X118566429Y-90661428D01*
X118709286Y-90589999D01*
X119137857Y-90589999D01*
X119280714Y-90661428D01*
X119352143Y-90732857D01*
X119423571Y-90875714D01*
X119423571Y-91089999D01*
X119423571Y-89947142D02*
X118423571Y-89947142D01*
X118709286Y-89947142D02*
X118566429Y-89875714D01*
X118495000Y-89804285D01*
X118423571Y-89661428D01*
X118423571Y-89518571D01*
X118423571Y-89161428D02*
X119423571Y-88804285D01*
X118423571Y-88447143D02*
X119423571Y-88804285D01*
X119780714Y-88947143D01*
X119852143Y-89018571D01*
X119923571Y-89161428D01*
X121973571Y-116232857D02*
X120473571Y-116232857D01*
X120973571Y-115518571D02*
X121973571Y-115518571D01*
X121116429Y-115518571D02*
X121045000Y-115447143D01*
X120973571Y-115304285D01*
X120973571Y-115090000D01*
X121045000Y-114947143D01*
X121187857Y-114875714D01*
X121973571Y-114875714D01*
X120973571Y-114375714D02*
X120973571Y-113804285D01*
X120473571Y-114161428D02*
X121759286Y-114161428D01*
X121902143Y-114090000D01*
X121973571Y-113947142D01*
X121973571Y-113804285D01*
X121902143Y-112732857D02*
X121973571Y-112875714D01*
X121973571Y-113161428D01*
X121902143Y-113304285D01*
X121759286Y-113375714D01*
X121187857Y-113375714D01*
X121045000Y-113304285D01*
X120973571Y-113161428D01*
X120973571Y-112875714D01*
X121045000Y-112732857D01*
X121187857Y-112661428D01*
X121330714Y-112661428D01*
X121473571Y-113375714D01*
X121973571Y-112018571D02*
X120973571Y-112018571D01*
X121259286Y-112018571D02*
X121116429Y-111947143D01*
X121045000Y-111875714D01*
X120973571Y-111732857D01*
X120973571Y-111590000D01*
X120973571Y-111304286D02*
X120973571Y-110732857D01*
X121973571Y-111090000D02*
X120687857Y-111090000D01*
X120545000Y-111018572D01*
X120473571Y-110875714D01*
X120473571Y-110732857D01*
X121973571Y-109590000D02*
X121187857Y-109590000D01*
X121045000Y-109661429D01*
X120973571Y-109804286D01*
X120973571Y-110090000D01*
X121045000Y-110232857D01*
X121902143Y-109590000D02*
X121973571Y-109732857D01*
X121973571Y-110090000D01*
X121902143Y-110232857D01*
X121759286Y-110304286D01*
X121616429Y-110304286D01*
X121473571Y-110232857D01*
X121402143Y-110090000D01*
X121402143Y-109732857D01*
X121330714Y-109590000D01*
X121902143Y-108232857D02*
X121973571Y-108375714D01*
X121973571Y-108661428D01*
X121902143Y-108804286D01*
X121830714Y-108875714D01*
X121687857Y-108947143D01*
X121259286Y-108947143D01*
X121116429Y-108875714D01*
X121045000Y-108804286D01*
X120973571Y-108661428D01*
X120973571Y-108375714D01*
X121045000Y-108232857D01*
X121902143Y-107018572D02*
X121973571Y-107161429D01*
X121973571Y-107447143D01*
X121902143Y-107590000D01*
X121759286Y-107661429D01*
X121187857Y-107661429D01*
X121045000Y-107590000D01*
X120973571Y-107447143D01*
X120973571Y-107161429D01*
X121045000Y-107018572D01*
X121187857Y-106947143D01*
X121330714Y-106947143D01*
X121473571Y-107661429D01*
X121973571Y-104304286D02*
X121259286Y-104804286D01*
X121973571Y-105161429D02*
X120473571Y-105161429D01*
X120473571Y-104590001D01*
X120545000Y-104447143D01*
X120616429Y-104375715D01*
X120759286Y-104304286D01*
X120973571Y-104304286D01*
X121116429Y-104375715D01*
X121187857Y-104447143D01*
X121259286Y-104590001D01*
X121259286Y-105161429D01*
X121902143Y-103090001D02*
X121973571Y-103232858D01*
X121973571Y-103518572D01*
X121902143Y-103661429D01*
X121759286Y-103732858D01*
X121187857Y-103732858D01*
X121045000Y-103661429D01*
X120973571Y-103518572D01*
X120973571Y-103232858D01*
X121045000Y-103090001D01*
X121187857Y-103018572D01*
X121330714Y-103018572D01*
X121473571Y-103732858D01*
X120973571Y-102518572D02*
X121973571Y-102161429D01*
X120973571Y-101804287D01*
X121973571Y-101232858D02*
X120973571Y-101232858D01*
X120473571Y-101232858D02*
X120545000Y-101304287D01*
X120616429Y-101232858D01*
X120545000Y-101161430D01*
X120473571Y-101232858D01*
X120616429Y-101232858D01*
X121902143Y-100590001D02*
X121973571Y-100447144D01*
X121973571Y-100161429D01*
X121902143Y-100018572D01*
X121759286Y-99947144D01*
X121687857Y-99947144D01*
X121545000Y-100018572D01*
X121473571Y-100161429D01*
X121473571Y-100375715D01*
X121402143Y-100518572D01*
X121259286Y-100590001D01*
X121187857Y-100590001D01*
X121045000Y-100518572D01*
X120973571Y-100375715D01*
X120973571Y-100161429D01*
X121045000Y-100018572D01*
X121973571Y-99304286D02*
X120973571Y-99304286D01*
X120473571Y-99304286D02*
X120545000Y-99375715D01*
X120616429Y-99304286D01*
X120545000Y-99232858D01*
X120473571Y-99304286D01*
X120616429Y-99304286D01*
X121973571Y-98375714D02*
X121902143Y-98518572D01*
X121830714Y-98590000D01*
X121687857Y-98661429D01*
X121259286Y-98661429D01*
X121116429Y-98590000D01*
X121045000Y-98518572D01*
X120973571Y-98375714D01*
X120973571Y-98161429D01*
X121045000Y-98018572D01*
X121116429Y-97947143D01*
X121259286Y-97875714D01*
X121687857Y-97875714D01*
X121830714Y-97947143D01*
X121902143Y-98018572D01*
X121973571Y-98161429D01*
X121973571Y-98375714D01*
X120973571Y-97232857D02*
X121973571Y-97232857D01*
X121116429Y-97232857D02*
X121045000Y-97161429D01*
X120973571Y-97018571D01*
X120973571Y-96804286D01*
X121045000Y-96661429D01*
X121187857Y-96590000D01*
X121973571Y-96590000D01*
X120473571Y-94947143D02*
X121973571Y-94447143D01*
X120473571Y-93947143D01*
X121973571Y-92661429D02*
X121973571Y-93518572D01*
X121973571Y-93090000D02*
X120473571Y-93090000D01*
X120687857Y-93232857D01*
X120830714Y-93375715D01*
X120902143Y-93518572D01*
X122116429Y-92375715D02*
X122116429Y-91232858D01*
X120473571Y-90590001D02*
X120473571Y-90447144D01*
X120545000Y-90304287D01*
X120616429Y-90232858D01*
X120759286Y-90161429D01*
X121045000Y-90090001D01*
X121402143Y-90090001D01*
X121687857Y-90161429D01*
X121830714Y-90232858D01*
X121902143Y-90304287D01*
X121973571Y-90447144D01*
X121973571Y-90590001D01*
X121902143Y-90732858D01*
X121830714Y-90804287D01*
X121687857Y-90875715D01*
X121402143Y-90947144D01*
X121045000Y-90947144D01*
X120759286Y-90875715D01*
X120616429Y-90804287D01*
X120545000Y-90732858D01*
X120473571Y-90590001D01*
D12*
X123180000Y-106950000D02*
X125680000Y-106950000D01*
X125680000Y-80650000D02*
X125680000Y-106950000D01*
X123180000Y-80650000D02*
X125680000Y-80650000D01*
X123180000Y-80650000D02*
X123180000Y-106950000D01*
X181780000Y-132150000D02*
X181780000Y-106150000D01*
X185280000Y-106150000D02*
X181780000Y-106150000D01*
X185280000Y-132150000D02*
X181780000Y-132150000D01*
X185280000Y-106150000D02*
X185280000Y-132150000D01*
X208280000Y-122450000D02*
X208280000Y-133450000D01*
X190400000Y-122450000D02*
X208280000Y-122450000D01*
X190400000Y-106250000D02*
X190400000Y-122450000D01*
X208280000Y-106250000D02*
X190400000Y-106250000D01*
X208280000Y-101750000D02*
X208280000Y-106250000D01*
X194180000Y-101750000D02*
X208280000Y-101750000D01*
X194180000Y-88150000D02*
X194180000Y-101750000D01*
X208280000Y-88150000D02*
X194180000Y-88150000D01*
X208280000Y-86750000D02*
X208280000Y-88150000D01*
X203700000Y-86750000D02*
X208280000Y-86750000D01*
X203700000Y-79850000D02*
X203700000Y-86750000D01*
X208280000Y-79850000D02*
X203700000Y-79850000D01*
X190600000Y-73450000D02*
X208280000Y-73450000D01*
X190600000Y-85550000D02*
X190600000Y-73450000D01*
X178300000Y-85550000D02*
X190600000Y-85550000D01*
X178300000Y-73450000D02*
X178300000Y-85550000D01*
X170800000Y-73450000D02*
X178300000Y-73450000D01*
X170800000Y-83950000D02*
X170800000Y-73450000D01*
X159600000Y-83950000D02*
X170800000Y-83950000D01*
X159600000Y-73450000D02*
X159600000Y-83950000D01*
X120700000Y-125450000D02*
G75*
G03X120700000Y-125450000I-1500000J0D01*
G01*
X207050000Y-130750000D02*
G75*
G03X207050000Y-130750000I-1500000J0D01*
G01*
X207050000Y-76200000D02*
G75*
G03X207050000Y-76200000I-1500000J0D01*
G01*
X120700000Y-76200000D02*
G75*
G03X120700000Y-76200000I-1500000J0D01*
G01*
X116480000Y-133450000D02*
X116480000Y-73450000D01*
X208280000Y-133450000D02*
X116480000Y-133450000D01*
X208280000Y-73450000D02*
X208280000Y-79850000D01*
X116480000Y-73450000D02*
X159600000Y-73450000D01*
D13*
X158710000Y-110780000D02*
X158710000Y-115860000D01*
X156170000Y-115860000D02*
X156170000Y-110780000D01*
X158710000Y-115860000D02*
X156170000Y-115860000D01*
X156170000Y-110780000D02*
X158710000Y-110780000D01*
D12*
X126318000Y-76804000D02*
X123518000Y-76804000D01*
X126318000Y-79604000D02*
X126318000Y-76804000D01*
X123518000Y-74004000D02*
X123518000Y-79604000D01*
X123618000Y-74004000D02*
X123518000Y-74004000D01*
X123818000Y-74004000D02*
X123618000Y-74004000D01*
X157018000Y-74004000D02*
X123818000Y-74004000D01*
X157018000Y-79604000D02*
X157018000Y-74004000D01*
X123518000Y-79604000D02*
X157018000Y-79604000D01*
D14*
X159350000Y-108240000D02*
X160650000Y-109540000D01*
X159350000Y-108590000D02*
X160350000Y-109590000D01*
X159350000Y-108890000D02*
X160050000Y-109590000D01*
X159350000Y-109240000D02*
X159700000Y-109590000D01*
X164675000Y-104240000D02*
X164675000Y-109640000D01*
X164675000Y-104240000D02*
X159325000Y-104240000D01*
X159325000Y-104240000D02*
X159325000Y-109640000D01*
X159325000Y-109640000D02*
X164675000Y-109640000D01*
X147900000Y-108240000D02*
X149200000Y-109540000D01*
X147900000Y-108590000D02*
X148900000Y-109590000D01*
X147900000Y-108890000D02*
X148600000Y-109590000D01*
X147900000Y-109240000D02*
X148250000Y-109590000D01*
X153225000Y-104240000D02*
X153225000Y-109640000D01*
X153225000Y-104240000D02*
X147875000Y-104240000D01*
X147875000Y-104240000D02*
X147875000Y-109640000D01*
X147875000Y-109640000D02*
X153225000Y-109640000D01*
D15*
X137040620Y-99417800D02*
X138056620Y-99417800D01*
X138056620Y-97789660D02*
X137033000Y-97789660D01*
X138061700Y-97794740D02*
X138061700Y-99405100D01*
X134995920Y-97794740D02*
X134995920Y-99405100D01*
X135001000Y-97789660D02*
X136024620Y-97789660D01*
X136017000Y-99417800D02*
X135001000Y-99417800D01*
X145607200Y-105505620D02*
X145607200Y-106521620D01*
X147235340Y-106521620D02*
X147235340Y-105498000D01*
X147230260Y-106526700D02*
X145619900Y-106526700D01*
X147230260Y-103460920D02*
X145619900Y-103460920D01*
X147235340Y-103466000D02*
X147235340Y-104489620D01*
X145607200Y-104482000D02*
X145607200Y-103466000D01*
X145392800Y-104474380D02*
X145392800Y-103458380D01*
X143764660Y-103458380D02*
X143764660Y-104482000D01*
X143769740Y-103453300D02*
X145380100Y-103453300D01*
X143769740Y-106519080D02*
X145380100Y-106519080D01*
X143764660Y-106514000D02*
X143764660Y-105490380D01*
X145392800Y-105498000D02*
X145392800Y-106514000D01*
X188267200Y-88475620D02*
X188267200Y-89491620D01*
X189895340Y-89491620D02*
X189895340Y-88468000D01*
X189890260Y-89496700D02*
X188279900Y-89496700D01*
X189890260Y-86430920D02*
X188279900Y-86430920D01*
X189895340Y-86436000D02*
X189895340Y-87459620D01*
X188267200Y-87452000D02*
X188267200Y-86436000D01*
X177727200Y-92755620D02*
X177727200Y-93771620D01*
X179355340Y-93771620D02*
X179355340Y-92748000D01*
X179350260Y-93776700D02*
X177739900Y-93776700D01*
X179350260Y-90710920D02*
X177739900Y-90710920D01*
X179355340Y-90716000D02*
X179355340Y-91739620D01*
X177727200Y-91732000D02*
X177727200Y-90716000D01*
X185924380Y-87387200D02*
X184908380Y-87387200D01*
X184908380Y-89015340D02*
X185932000Y-89015340D01*
X184903300Y-89010260D02*
X184903300Y-87399900D01*
X187969080Y-89010260D02*
X187969080Y-87399900D01*
X187964000Y-89015340D02*
X186940380Y-89015340D01*
X186948000Y-87387200D02*
X187964000Y-87387200D01*
X136009380Y-99632200D02*
X134993380Y-99632200D01*
X134993380Y-101260340D02*
X136017000Y-101260340D01*
X134988300Y-101255260D02*
X134988300Y-99644900D01*
X138054080Y-101255260D02*
X138054080Y-99644900D01*
X138049000Y-101260340D02*
X137025380Y-101260340D01*
X137033000Y-99632200D02*
X138049000Y-99632200D01*
X157137200Y-105505620D02*
X157137200Y-106521620D01*
X158765340Y-106521620D02*
X158765340Y-105498000D01*
X158760260Y-106526700D02*
X157149900Y-106526700D01*
X158760260Y-103460920D02*
X157149900Y-103460920D01*
X158765340Y-103466000D02*
X158765340Y-104489620D01*
X157137200Y-104482000D02*
X157137200Y-103466000D01*
X156922800Y-104474380D02*
X156922800Y-103458380D01*
X155294660Y-103458380D02*
X155294660Y-104482000D01*
X155299740Y-103453300D02*
X156910100Y-103453300D01*
X155299740Y-106519080D02*
X156910100Y-106519080D01*
X155294660Y-106514000D02*
X155294660Y-105490380D01*
X156922800Y-105498000D02*
X156922800Y-106514000D01*
X170212800Y-104474380D02*
X170212800Y-103458380D01*
X168584660Y-103458380D02*
X168584660Y-104482000D01*
X168589740Y-103453300D02*
X170200100Y-103453300D01*
X168589740Y-106519080D02*
X170200100Y-106519080D01*
X168584660Y-106514000D02*
X168584660Y-105490380D01*
X170212800Y-105498000D02*
X170212800Y-106514000D01*
X175887200Y-92755620D02*
X175887200Y-93771620D01*
X177515340Y-93771620D02*
X177515340Y-92748000D01*
X177510260Y-93776700D02*
X175899900Y-93776700D01*
X177510260Y-90710920D02*
X175899900Y-90710920D01*
X177515340Y-90716000D02*
X177515340Y-91739620D01*
X175887200Y-91732000D02*
X175887200Y-90716000D01*
X166747200Y-105505620D02*
X166747200Y-106521620D01*
X168375340Y-106521620D02*
X168375340Y-105498000D01*
X168370260Y-106526700D02*
X166759900Y-106526700D01*
X168370260Y-103460920D02*
X166759900Y-103460920D01*
X168375340Y-103466000D02*
X168375340Y-104489620D01*
X166747200Y-104482000D02*
X166747200Y-103466000D01*
X136317200Y-113725620D02*
X136317200Y-114741620D01*
X137945340Y-114741620D02*
X137945340Y-113718000D01*
X137940260Y-114746700D02*
X136329900Y-114746700D01*
X137940260Y-111680920D02*
X136329900Y-111680920D01*
X137945340Y-111686000D02*
X137945340Y-112709620D01*
X136317200Y-112702000D02*
X136317200Y-111686000D01*
X147627200Y-113725620D02*
X147627200Y-114741620D01*
X149255340Y-114741620D02*
X149255340Y-113718000D01*
X149250260Y-114746700D02*
X147639900Y-114746700D01*
X149250260Y-111680920D02*
X147639900Y-111680920D01*
X149255340Y-111686000D02*
X149255340Y-112709620D01*
X147627200Y-112702000D02*
X147627200Y-111686000D01*
X164915620Y-94932800D02*
X165931620Y-94932800D01*
X165931620Y-93304660D02*
X164908000Y-93304660D01*
X165936700Y-93309740D02*
X165936700Y-94920100D01*
X162870920Y-93309740D02*
X162870920Y-94920100D01*
X162876000Y-93304660D02*
X163899620Y-93304660D01*
X163892000Y-94932800D02*
X162876000Y-94932800D01*
X159117200Y-113725620D02*
X159117200Y-114741620D01*
X160745340Y-114741620D02*
X160745340Y-113718000D01*
X160740260Y-114746700D02*
X159129900Y-114746700D01*
X160740260Y-111680920D02*
X159129900Y-111680920D01*
X160745340Y-111686000D02*
X160745340Y-112709620D01*
X159117200Y-112702000D02*
X159117200Y-111686000D01*
X182977200Y-88925620D02*
X182977200Y-89941620D01*
X184605340Y-89941620D02*
X184605340Y-88918000D01*
X184600260Y-89946700D02*
X182989900Y-89946700D01*
X184600260Y-86880920D02*
X182989900Y-86880920D01*
X184605340Y-86886000D02*
X184605340Y-87909620D01*
X182977200Y-87902000D02*
X182977200Y-86886000D01*
X170577200Y-113725620D02*
X170577200Y-114741620D01*
X172205340Y-114741620D02*
X172205340Y-113718000D01*
X172200260Y-114746700D02*
X170589900Y-114746700D01*
X172200260Y-111680920D02*
X170589900Y-111680920D01*
X172205340Y-111686000D02*
X172205340Y-112709620D01*
X170577200Y-112702000D02*
X170577200Y-111686000D01*
D14*
X136380000Y-108240000D02*
X137680000Y-109540000D01*
X136380000Y-108590000D02*
X137380000Y-109590000D01*
X136380000Y-108890000D02*
X137080000Y-109590000D01*
X136380000Y-109240000D02*
X136730000Y-109590000D01*
X141705000Y-104240000D02*
X141705000Y-109640000D01*
X141705000Y-104240000D02*
X136355000Y-104240000D01*
X136355000Y-104240000D02*
X136355000Y-109640000D01*
X136355000Y-109640000D02*
X141705000Y-109640000D01*
X170810000Y-108210000D02*
X172110000Y-109510000D01*
X170810000Y-108560000D02*
X171810000Y-109560000D01*
X170810000Y-108860000D02*
X171510000Y-109560000D01*
X170810000Y-109210000D02*
X171160000Y-109560000D01*
X176135000Y-104210000D02*
X176135000Y-109610000D01*
X176135000Y-104210000D02*
X170785000Y-104210000D01*
X170785000Y-104210000D02*
X170785000Y-109610000D01*
X170785000Y-109610000D02*
X176135000Y-109610000D01*
D16*
X181809500Y-103280420D02*
X189810500Y-103280420D01*
X189810500Y-103280420D02*
X189810500Y-91479580D01*
X189810500Y-91479580D02*
X181809500Y-91479580D01*
X181809500Y-91479580D02*
X181809500Y-103280420D01*
X189119620Y-92505740D02*
G75*
G03X189119620Y-92505740I-508000J0D01*
G01*
D14*
X169670000Y-89590000D02*
X168370000Y-90890000D01*
X169320000Y-89590000D02*
X168320000Y-90590000D01*
X169020000Y-89590000D02*
X168320000Y-90290000D01*
X168670000Y-89590000D02*
X168320000Y-89940000D01*
X173670000Y-94915000D02*
X168270000Y-94915000D01*
X173670000Y-94915000D02*
X173670000Y-89565000D01*
X173670000Y-89565000D02*
X168270000Y-89565000D01*
X168270000Y-89565000D02*
X168270000Y-94915000D01*
D15*
X151675620Y-114972800D02*
X152691620Y-114972800D01*
X152691620Y-113344660D02*
X151668000Y-113344660D01*
X152696700Y-113349740D02*
X152696700Y-114960100D01*
X149630920Y-113349740D02*
X149630920Y-114960100D01*
X149636000Y-113344660D02*
X150659620Y-113344660D01*
X150652000Y-114972800D02*
X149636000Y-114972800D01*
X162637200Y-97195620D02*
X162637200Y-98211620D01*
X164265340Y-98211620D02*
X164265340Y-97188000D01*
X164260260Y-98216700D02*
X162649900Y-98216700D01*
X164260260Y-95150920D02*
X162649900Y-95150920D01*
X164265340Y-95156000D02*
X164265340Y-96179620D01*
X162637200Y-96172000D02*
X162637200Y-95156000D01*
X190077200Y-88475620D02*
X190077200Y-89491620D01*
X191705340Y-89491620D02*
X191705340Y-88468000D01*
X191700260Y-89496700D02*
X190089900Y-89496700D01*
X191700260Y-86430920D02*
X190089900Y-86430920D01*
X191705340Y-86436000D02*
X191705340Y-87459620D01*
X190077200Y-87452000D02*
X190077200Y-86436000D01*
X163135620Y-114972800D02*
X164151620Y-114972800D01*
X164151620Y-113344660D02*
X163128000Y-113344660D01*
X164156700Y-113349740D02*
X164156700Y-114960100D01*
X161090920Y-113349740D02*
X161090920Y-114960100D01*
X161096000Y-113344660D02*
X162119620Y-113344660D01*
X162112000Y-114972800D02*
X161096000Y-114972800D01*
X140185620Y-114972800D02*
X141201620Y-114972800D01*
X141201620Y-113344660D02*
X140178000Y-113344660D01*
X141206700Y-113349740D02*
X141206700Y-114960100D01*
X138140920Y-113349740D02*
X138140920Y-114960100D01*
X138146000Y-113344660D02*
X139169620Y-113344660D01*
X139162000Y-114972800D02*
X138146000Y-114972800D01*
X174645620Y-114972800D02*
X175661620Y-114972800D01*
X175661620Y-113344660D02*
X174638000Y-113344660D01*
X175666700Y-113349740D02*
X175666700Y-114960100D01*
X172600920Y-113349740D02*
X172600920Y-114960100D01*
X172606000Y-113344660D02*
X173629620Y-113344660D01*
X173622000Y-114972800D02*
X172606000Y-114972800D01*
D13*
X135900000Y-110800000D02*
X135900000Y-115880000D01*
X133360000Y-115880000D02*
X133360000Y-110800000D01*
X135900000Y-115880000D02*
X133360000Y-115880000D01*
X133360000Y-110800000D02*
X135900000Y-110800000D01*
X147220000Y-110800000D02*
X147220000Y-115880000D01*
X144680000Y-115880000D02*
X144680000Y-110800000D01*
X147220000Y-115880000D02*
X144680000Y-115880000D01*
X144680000Y-110800000D02*
X147220000Y-110800000D01*
X180880000Y-88920000D02*
X175800000Y-88920000D01*
X175800000Y-86380000D02*
X180880000Y-86380000D01*
X175800000Y-88920000D02*
X175800000Y-86380000D01*
X180880000Y-86380000D02*
X180880000Y-88920000D01*
X166000000Y-95520000D02*
X171080000Y-95520000D01*
X171080000Y-98060000D02*
X166000000Y-98060000D01*
X171080000Y-95520000D02*
X171080000Y-98060000D01*
X166000000Y-98060000D02*
X166000000Y-95520000D01*
X170130000Y-110760000D02*
X170130000Y-115840000D01*
X167590000Y-115840000D02*
X167590000Y-110760000D01*
X170130000Y-115840000D02*
X167590000Y-115840000D01*
X167590000Y-110760000D02*
X170130000Y-110760000D01*
D12*
X131120000Y-85890000D02*
X131220000Y-85890000D01*
X131120000Y-80340000D02*
X131120000Y-85890000D01*
X133920000Y-83140000D02*
X131120000Y-83140000D01*
X133920000Y-85890000D02*
X133920000Y-83140000D01*
X141420000Y-85890000D02*
X131170000Y-85890000D01*
X141420000Y-80340000D02*
X141420000Y-85890000D01*
X131420000Y-80340000D02*
X141420000Y-80340000D01*
X131228000Y-80344000D02*
X131128000Y-80344000D01*
X131428000Y-80344000D02*
X131228000Y-80344000D01*
D13*
X146580000Y-83210000D02*
X141500000Y-83210000D01*
X141500000Y-80670000D02*
X146580000Y-80670000D01*
X141500000Y-83210000D02*
X141500000Y-80670000D01*
X146580000Y-80670000D02*
X146580000Y-83210000D01*
D15*
X153562800Y-82114380D02*
X153562800Y-81098380D01*
X151934660Y-81098380D02*
X151934660Y-82122000D01*
X151939740Y-81093300D02*
X153550100Y-81093300D01*
X151939740Y-84159080D02*
X153550100Y-84159080D01*
X151934660Y-84154000D02*
X151934660Y-83130380D01*
X153562800Y-83138000D02*
X153562800Y-84154000D01*
D17*
X147150000Y-89820000D02*
X146050000Y-88720000D01*
X147150000Y-89620000D02*
X146250000Y-88720000D01*
X147150000Y-89420000D02*
X146450000Y-88720000D01*
X147150000Y-89220000D02*
X146650000Y-88720000D01*
X147150000Y-89020000D02*
X146850000Y-88720000D01*
X140550000Y-93170000D02*
X147150000Y-93170000D01*
X147150000Y-93170000D02*
X147150000Y-88670000D01*
X147150000Y-88670000D02*
X140550000Y-88670000D01*
X140550000Y-88670000D02*
X140550000Y-93170000D01*
D15*
X156476880Y-96367200D02*
X155460880Y-96367200D01*
X155460880Y-97995340D02*
X156484500Y-97995340D01*
X155455800Y-97990260D02*
X155455800Y-96379900D01*
X158521580Y-97990260D02*
X158521580Y-96379900D01*
X158516500Y-97995340D02*
X157492880Y-97995340D01*
X157500500Y-96367200D02*
X158516500Y-96367200D01*
X153154380Y-96367200D02*
X152138380Y-96367200D01*
X152138380Y-97995340D02*
X153162000Y-97995340D01*
X152133300Y-97990260D02*
X152133300Y-96379900D01*
X155199080Y-97990260D02*
X155199080Y-96379900D01*
X155194000Y-97995340D02*
X154170380Y-97995340D01*
X154178000Y-96367200D02*
X155194000Y-96367200D01*
D12*
X151727214Y-90070000D02*
G75*
G03X151727214Y-90070000I-447214J0D01*
G01*
X160227214Y-90070000D02*
G75*
G03X160227214Y-90070000I-447214J0D01*
G01*
X156086226Y-86070000D02*
G75*
G03X156086226Y-86070000I-806226J0D01*
G01*
X156104621Y-94070000D02*
G75*
G03X156104621Y-94070000I-824621J0D01*
G01*
X156488305Y-90070000D02*
G75*
G03X156488305Y-90070000I-1208305J0D01*
G01*
X150276488Y-92801918D02*
G75*
G03X150270000Y-87350000I5003512J2731918D01*
G01*
X150280000Y-92810000D02*
X150270000Y-87360000D01*
D16*
X156690096Y-110449619D02*
X156690096Y-109433619D01*
X157077143Y-109433619D01*
X157173905Y-109482000D01*
X157222286Y-109530381D01*
X157270667Y-109627143D01*
X157270667Y-109772286D01*
X157222286Y-109869048D01*
X157173905Y-109917429D01*
X157077143Y-109965810D01*
X156690096Y-109965810D01*
X158141524Y-109433619D02*
X157948001Y-109433619D01*
X157851239Y-109482000D01*
X157802858Y-109530381D01*
X157706096Y-109675524D01*
X157657715Y-109869048D01*
X157657715Y-110256095D01*
X157706096Y-110352857D01*
X157754477Y-110401238D01*
X157851239Y-110449619D01*
X158044762Y-110449619D01*
X158141524Y-110401238D01*
X158189905Y-110352857D01*
X158238286Y-110256095D01*
X158238286Y-110014190D01*
X158189905Y-109917429D01*
X158141524Y-109869048D01*
X158044762Y-109820667D01*
X157851239Y-109820667D01*
X157754477Y-109869048D01*
X157706096Y-109917429D01*
X157657715Y-110014190D01*
D12*
X121741905Y-78642381D02*
X121741905Y-77642381D01*
X122122858Y-77642381D01*
X122218096Y-77690000D01*
X122265715Y-77737619D01*
X122313334Y-77832857D01*
X122313334Y-77975714D01*
X122265715Y-78070952D01*
X122218096Y-78118571D01*
X122122858Y-78166190D01*
X121741905Y-78166190D01*
X123265715Y-78642381D02*
X122694286Y-78642381D01*
X122980000Y-78642381D02*
X122980000Y-77642381D01*
X122884762Y-77785238D01*
X122789524Y-77880476D01*
X122694286Y-77928095D01*
D18*
X165332381Y-107954524D02*
X165332381Y-108982619D01*
X165392857Y-109103571D01*
X165453333Y-109164048D01*
X165574286Y-109224524D01*
X165816190Y-109224524D01*
X165937143Y-109164048D01*
X165997619Y-109103571D01*
X166058095Y-108982619D01*
X166058095Y-107954524D01*
X167207143Y-108377857D02*
X167207143Y-109224524D01*
X166904762Y-107894048D02*
X166602381Y-108801190D01*
X167388571Y-108801190D01*
X153942381Y-108014524D02*
X153942381Y-109042619D01*
X154002857Y-109163571D01*
X154063333Y-109224048D01*
X154184286Y-109284524D01*
X154426190Y-109284524D01*
X154547143Y-109224048D01*
X154607619Y-109163571D01*
X154668095Y-109042619D01*
X154668095Y-108014524D01*
X155151905Y-108014524D02*
X155938095Y-108014524D01*
X155514762Y-108498333D01*
X155696190Y-108498333D01*
X155817143Y-108558810D01*
X155877619Y-108619286D01*
X155938095Y-108740238D01*
X155938095Y-109042619D01*
X155877619Y-109163571D01*
X155817143Y-109224048D01*
X155696190Y-109284524D01*
X155333333Y-109284524D01*
X155212381Y-109224048D01*
X155151905Y-109163571D01*
D15*
X138664167Y-98696786D02*
X138633929Y-98727024D01*
X138543214Y-98757262D01*
X138482738Y-98757262D01*
X138392024Y-98727024D01*
X138331548Y-98666548D01*
X138301309Y-98606071D01*
X138271071Y-98485119D01*
X138271071Y-98394405D01*
X138301309Y-98273452D01*
X138331548Y-98212976D01*
X138392024Y-98152500D01*
X138482738Y-98122262D01*
X138543214Y-98122262D01*
X138633929Y-98152500D01*
X138664167Y-98182738D01*
X139268929Y-98757262D02*
X138906071Y-98757262D01*
X139087500Y-98757262D02*
X139087500Y-98122262D01*
X139027024Y-98212976D01*
X138966548Y-98273452D01*
X138906071Y-98303690D01*
X146304167Y-107366786D02*
X146273929Y-107397024D01*
X146183214Y-107427262D01*
X146122738Y-107427262D01*
X146032024Y-107397024D01*
X145971548Y-107336548D01*
X145941309Y-107276071D01*
X145911071Y-107155119D01*
X145911071Y-107064405D01*
X145941309Y-106943452D01*
X145971548Y-106882976D01*
X146032024Y-106822500D01*
X146122738Y-106792262D01*
X146183214Y-106792262D01*
X146273929Y-106822500D01*
X146304167Y-106852738D01*
X146546071Y-106852738D02*
X146576309Y-106822500D01*
X146636786Y-106792262D01*
X146787976Y-106792262D01*
X146848452Y-106822500D01*
X146878690Y-106852738D01*
X146908929Y-106913214D01*
X146908929Y-106973690D01*
X146878690Y-107064405D01*
X146515833Y-107427262D01*
X146908929Y-107427262D01*
X144474167Y-107326786D02*
X144443929Y-107357024D01*
X144353214Y-107387262D01*
X144292738Y-107387262D01*
X144202024Y-107357024D01*
X144141548Y-107296548D01*
X144111309Y-107236071D01*
X144081071Y-107115119D01*
X144081071Y-107024405D01*
X144111309Y-106903452D01*
X144141548Y-106842976D01*
X144202024Y-106782500D01*
X144292738Y-106752262D01*
X144353214Y-106752262D01*
X144443929Y-106782500D01*
X144474167Y-106812738D01*
X144685833Y-106752262D02*
X145078929Y-106752262D01*
X144867262Y-106994167D01*
X144957976Y-106994167D01*
X145018452Y-107024405D01*
X145048690Y-107054643D01*
X145078929Y-107115119D01*
X145078929Y-107266310D01*
X145048690Y-107326786D01*
X145018452Y-107357024D01*
X144957976Y-107387262D01*
X144776548Y-107387262D01*
X144716071Y-107357024D01*
X144685833Y-107326786D01*
X187404167Y-86926786D02*
X187373929Y-86957024D01*
X187283214Y-86987262D01*
X187222738Y-86987262D01*
X187132024Y-86957024D01*
X187071548Y-86896548D01*
X187041309Y-86836071D01*
X187011071Y-86715119D01*
X187011071Y-86624405D01*
X187041309Y-86503452D01*
X187071548Y-86442976D01*
X187132024Y-86382500D01*
X187222738Y-86352262D01*
X187283214Y-86352262D01*
X187373929Y-86382500D01*
X187404167Y-86412738D01*
X187948452Y-86563929D02*
X187948452Y-86987262D01*
X187797262Y-86322024D02*
X187646071Y-86775595D01*
X188039167Y-86775595D01*
X178424167Y-90396786D02*
X178393929Y-90427024D01*
X178303214Y-90457262D01*
X178242738Y-90457262D01*
X178152024Y-90427024D01*
X178091548Y-90366548D01*
X178061309Y-90306071D01*
X178031071Y-90185119D01*
X178031071Y-90094405D01*
X178061309Y-89973452D01*
X178091548Y-89912976D01*
X178152024Y-89852500D01*
X178242738Y-89822262D01*
X178303214Y-89822262D01*
X178393929Y-89852500D01*
X178424167Y-89882738D01*
X178998690Y-89822262D02*
X178696309Y-89822262D01*
X178666071Y-90124643D01*
X178696309Y-90094405D01*
X178756786Y-90064167D01*
X178907976Y-90064167D01*
X178968452Y-90094405D01*
X178998690Y-90124643D01*
X179028929Y-90185119D01*
X179028929Y-90336310D01*
X178998690Y-90396786D01*
X178968452Y-90427024D01*
X178907976Y-90457262D01*
X178756786Y-90457262D01*
X178696309Y-90427024D01*
X178666071Y-90396786D01*
X186314167Y-89786786D02*
X186283929Y-89817024D01*
X186193214Y-89847262D01*
X186132738Y-89847262D01*
X186042024Y-89817024D01*
X185981548Y-89756548D01*
X185951309Y-89696071D01*
X185921071Y-89575119D01*
X185921071Y-89484405D01*
X185951309Y-89363452D01*
X185981548Y-89302976D01*
X186042024Y-89242500D01*
X186132738Y-89212262D01*
X186193214Y-89212262D01*
X186283929Y-89242500D01*
X186314167Y-89272738D01*
X186858452Y-89212262D02*
X186737500Y-89212262D01*
X186677024Y-89242500D01*
X186646786Y-89272738D01*
X186586309Y-89363452D01*
X186556071Y-89484405D01*
X186556071Y-89726310D01*
X186586309Y-89786786D01*
X186616548Y-89817024D01*
X186677024Y-89847262D01*
X186797976Y-89847262D01*
X186858452Y-89817024D01*
X186888690Y-89786786D01*
X186918929Y-89726310D01*
X186918929Y-89575119D01*
X186888690Y-89514643D01*
X186858452Y-89484405D01*
X186797976Y-89454167D01*
X186677024Y-89454167D01*
X186616548Y-89484405D01*
X186586309Y-89514643D01*
X186556071Y-89575119D01*
X138634167Y-100286786D02*
X138603929Y-100317024D01*
X138513214Y-100347262D01*
X138452738Y-100347262D01*
X138362024Y-100317024D01*
X138301548Y-100256548D01*
X138271309Y-100196071D01*
X138241071Y-100075119D01*
X138241071Y-99984405D01*
X138271309Y-99863452D01*
X138301548Y-99802976D01*
X138362024Y-99742500D01*
X138452738Y-99712262D01*
X138513214Y-99712262D01*
X138603929Y-99742500D01*
X138634167Y-99772738D01*
X138845833Y-99712262D02*
X139269167Y-99712262D01*
X138997024Y-100347262D01*
X157854167Y-107366786D02*
X157823929Y-107397024D01*
X157733214Y-107427262D01*
X157672738Y-107427262D01*
X157582024Y-107397024D01*
X157521548Y-107336548D01*
X157491309Y-107276071D01*
X157461071Y-107155119D01*
X157461071Y-107064405D01*
X157491309Y-106943452D01*
X157521548Y-106882976D01*
X157582024Y-106822500D01*
X157672738Y-106792262D01*
X157733214Y-106792262D01*
X157823929Y-106822500D01*
X157854167Y-106852738D01*
X158217024Y-107064405D02*
X158156548Y-107034167D01*
X158126309Y-107003929D01*
X158096071Y-106943452D01*
X158096071Y-106913214D01*
X158126309Y-106852738D01*
X158156548Y-106822500D01*
X158217024Y-106792262D01*
X158337976Y-106792262D01*
X158398452Y-106822500D01*
X158428690Y-106852738D01*
X158458929Y-106913214D01*
X158458929Y-106943452D01*
X158428690Y-107003929D01*
X158398452Y-107034167D01*
X158337976Y-107064405D01*
X158217024Y-107064405D01*
X158156548Y-107094643D01*
X158126309Y-107124881D01*
X158096071Y-107185357D01*
X158096071Y-107306310D01*
X158126309Y-107366786D01*
X158156548Y-107397024D01*
X158217024Y-107427262D01*
X158337976Y-107427262D01*
X158398452Y-107397024D01*
X158428690Y-107366786D01*
X158458929Y-107306310D01*
X158458929Y-107185357D01*
X158428690Y-107124881D01*
X158398452Y-107094643D01*
X158337976Y-107064405D01*
X156004167Y-107316786D02*
X155973929Y-107347024D01*
X155883214Y-107377262D01*
X155822738Y-107377262D01*
X155732024Y-107347024D01*
X155671548Y-107286548D01*
X155641309Y-107226071D01*
X155611071Y-107105119D01*
X155611071Y-107014405D01*
X155641309Y-106893452D01*
X155671548Y-106832976D01*
X155732024Y-106772500D01*
X155822738Y-106742262D01*
X155883214Y-106742262D01*
X155973929Y-106772500D01*
X156004167Y-106802738D01*
X156306548Y-107377262D02*
X156427500Y-107377262D01*
X156487976Y-107347024D01*
X156518214Y-107316786D01*
X156578690Y-107226071D01*
X156608929Y-107105119D01*
X156608929Y-106863214D01*
X156578690Y-106802738D01*
X156548452Y-106772500D01*
X156487976Y-106742262D01*
X156367024Y-106742262D01*
X156306548Y-106772500D01*
X156276309Y-106802738D01*
X156246071Y-106863214D01*
X156246071Y-107014405D01*
X156276309Y-107074881D01*
X156306548Y-107105119D01*
X156367024Y-107135357D01*
X156487976Y-107135357D01*
X156548452Y-107105119D01*
X156578690Y-107074881D01*
X156608929Y-107014405D01*
X168971786Y-107336786D02*
X168941548Y-107367024D01*
X168850833Y-107397262D01*
X168790357Y-107397262D01*
X168699643Y-107367024D01*
X168639167Y-107306548D01*
X168608928Y-107246071D01*
X168578690Y-107125119D01*
X168578690Y-107034405D01*
X168608928Y-106913452D01*
X168639167Y-106852976D01*
X168699643Y-106792500D01*
X168790357Y-106762262D01*
X168850833Y-106762262D01*
X168941548Y-106792500D01*
X168971786Y-106822738D01*
X169576548Y-107397262D02*
X169213690Y-107397262D01*
X169395119Y-107397262D02*
X169395119Y-106762262D01*
X169334643Y-106852976D01*
X169274167Y-106913452D01*
X169213690Y-106943690D01*
X169969643Y-106762262D02*
X170030119Y-106762262D01*
X170090595Y-106792500D01*
X170120833Y-106822738D01*
X170151071Y-106883214D01*
X170181310Y-107004167D01*
X170181310Y-107155357D01*
X170151071Y-107276310D01*
X170120833Y-107336786D01*
X170090595Y-107367024D01*
X170030119Y-107397262D01*
X169969643Y-107397262D01*
X169909167Y-107367024D01*
X169878929Y-107336786D01*
X169848690Y-107276310D01*
X169818452Y-107155357D01*
X169818452Y-107004167D01*
X169848690Y-106883214D01*
X169878929Y-106822738D01*
X169909167Y-106792500D01*
X169969643Y-106762262D01*
X176281786Y-90396786D02*
X176251548Y-90427024D01*
X176160833Y-90457262D01*
X176100357Y-90457262D01*
X176009643Y-90427024D01*
X175949167Y-90366548D01*
X175918928Y-90306071D01*
X175888690Y-90185119D01*
X175888690Y-90094405D01*
X175918928Y-89973452D01*
X175949167Y-89912976D01*
X176009643Y-89852500D01*
X176100357Y-89822262D01*
X176160833Y-89822262D01*
X176251548Y-89852500D01*
X176281786Y-89882738D01*
X176886548Y-90457262D02*
X176523690Y-90457262D01*
X176705119Y-90457262D02*
X176705119Y-89822262D01*
X176644643Y-89912976D01*
X176584167Y-89973452D01*
X176523690Y-90003690D01*
X177491310Y-90457262D02*
X177128452Y-90457262D01*
X177309881Y-90457262D02*
X177309881Y-89822262D01*
X177249405Y-89912976D01*
X177188929Y-89973452D01*
X177128452Y-90003690D01*
X167141786Y-107326786D02*
X167111548Y-107357024D01*
X167020833Y-107387262D01*
X166960357Y-107387262D01*
X166869643Y-107357024D01*
X166809167Y-107296548D01*
X166778928Y-107236071D01*
X166748690Y-107115119D01*
X166748690Y-107024405D01*
X166778928Y-106903452D01*
X166809167Y-106842976D01*
X166869643Y-106782500D01*
X166960357Y-106752262D01*
X167020833Y-106752262D01*
X167111548Y-106782500D01*
X167141786Y-106812738D01*
X167746548Y-107387262D02*
X167383690Y-107387262D01*
X167565119Y-107387262D02*
X167565119Y-106752262D01*
X167504643Y-106842976D01*
X167444167Y-106903452D01*
X167383690Y-106933690D01*
X167988452Y-106812738D02*
X168018690Y-106782500D01*
X168079167Y-106752262D01*
X168230357Y-106752262D01*
X168290833Y-106782500D01*
X168321071Y-106812738D01*
X168351310Y-106873214D01*
X168351310Y-106933690D01*
X168321071Y-107024405D01*
X167958214Y-107387262D01*
X168351310Y-107387262D01*
X138654167Y-112867262D02*
X138442500Y-112564881D01*
X138291309Y-112867262D02*
X138291309Y-112232262D01*
X138533214Y-112232262D01*
X138593690Y-112262500D01*
X138623929Y-112292738D01*
X138654167Y-112353214D01*
X138654167Y-112443929D01*
X138623929Y-112504405D01*
X138593690Y-112534643D01*
X138533214Y-112564881D01*
X138291309Y-112564881D01*
X139258929Y-112867262D02*
X138896071Y-112867262D01*
X139077500Y-112867262D02*
X139077500Y-112232262D01*
X139017024Y-112322976D01*
X138956548Y-112383452D01*
X138896071Y-112413690D01*
X149884167Y-112927262D02*
X149672500Y-112624881D01*
X149521309Y-112927262D02*
X149521309Y-112292262D01*
X149763214Y-112292262D01*
X149823690Y-112322500D01*
X149853929Y-112352738D01*
X149884167Y-112413214D01*
X149884167Y-112503929D01*
X149853929Y-112564405D01*
X149823690Y-112594643D01*
X149763214Y-112624881D01*
X149521309Y-112624881D01*
X150126071Y-112352738D02*
X150156309Y-112322500D01*
X150216786Y-112292262D01*
X150367976Y-112292262D01*
X150428452Y-112322500D01*
X150458690Y-112352738D01*
X150488929Y-112413214D01*
X150488929Y-112473690D01*
X150458690Y-112564405D01*
X150095833Y-112927262D01*
X150488929Y-112927262D01*
X164284167Y-92997262D02*
X164072500Y-92694881D01*
X163921309Y-92997262D02*
X163921309Y-92362262D01*
X164163214Y-92362262D01*
X164223690Y-92392500D01*
X164253929Y-92422738D01*
X164284167Y-92483214D01*
X164284167Y-92573929D01*
X164253929Y-92634405D01*
X164223690Y-92664643D01*
X164163214Y-92694881D01*
X163921309Y-92694881D01*
X164495833Y-92362262D02*
X164888929Y-92362262D01*
X164677262Y-92604167D01*
X164767976Y-92604167D01*
X164828452Y-92634405D01*
X164858690Y-92664643D01*
X164888929Y-92725119D01*
X164888929Y-92876310D01*
X164858690Y-92936786D01*
X164828452Y-92967024D01*
X164767976Y-92997262D01*
X164586548Y-92997262D01*
X164526071Y-92967024D01*
X164495833Y-92936786D01*
X161374167Y-113037262D02*
X161162500Y-112734881D01*
X161011309Y-113037262D02*
X161011309Y-112402262D01*
X161253214Y-112402262D01*
X161313690Y-112432500D01*
X161343929Y-112462738D01*
X161374167Y-112523214D01*
X161374167Y-112613929D01*
X161343929Y-112674405D01*
X161313690Y-112704643D01*
X161253214Y-112734881D01*
X161011309Y-112734881D01*
X161918452Y-112613929D02*
X161918452Y-113037262D01*
X161767262Y-112372024D02*
X161616071Y-112825595D01*
X162009167Y-112825595D01*
X182054167Y-88687262D02*
X181842500Y-88384881D01*
X181691309Y-88687262D02*
X181691309Y-88052262D01*
X181933214Y-88052262D01*
X181993690Y-88082500D01*
X182023929Y-88112738D01*
X182054167Y-88173214D01*
X182054167Y-88263929D01*
X182023929Y-88324405D01*
X181993690Y-88354643D01*
X181933214Y-88384881D01*
X181691309Y-88384881D01*
X182628690Y-88052262D02*
X182326309Y-88052262D01*
X182296071Y-88354643D01*
X182326309Y-88324405D01*
X182386786Y-88294167D01*
X182537976Y-88294167D01*
X182598452Y-88324405D01*
X182628690Y-88354643D01*
X182658929Y-88415119D01*
X182658929Y-88566310D01*
X182628690Y-88626786D01*
X182598452Y-88657024D01*
X182537976Y-88687262D01*
X182386786Y-88687262D01*
X182326309Y-88657024D01*
X182296071Y-88626786D01*
X172794167Y-112777262D02*
X172582500Y-112474881D01*
X172431309Y-112777262D02*
X172431309Y-112142262D01*
X172673214Y-112142262D01*
X172733690Y-112172500D01*
X172763929Y-112202738D01*
X172794167Y-112263214D01*
X172794167Y-112353929D01*
X172763929Y-112414405D01*
X172733690Y-112444643D01*
X172673214Y-112474881D01*
X172431309Y-112474881D01*
X173338452Y-112142262D02*
X173217500Y-112142262D01*
X173157024Y-112172500D01*
X173126786Y-112202738D01*
X173066309Y-112293452D01*
X173036071Y-112414405D01*
X173036071Y-112656310D01*
X173066309Y-112716786D01*
X173096548Y-112747024D01*
X173157024Y-112777262D01*
X173277976Y-112777262D01*
X173338452Y-112747024D01*
X173368690Y-112716786D01*
X173398929Y-112656310D01*
X173398929Y-112505119D01*
X173368690Y-112444643D01*
X173338452Y-112414405D01*
X173277976Y-112384167D01*
X173157024Y-112384167D01*
X173096548Y-112414405D01*
X173066309Y-112444643D01*
X173036071Y-112505119D01*
D18*
X142222381Y-107744524D02*
X142222381Y-108772619D01*
X142282857Y-108893571D01*
X142343333Y-108954048D01*
X142464286Y-109014524D01*
X142706190Y-109014524D01*
X142827143Y-108954048D01*
X142887619Y-108893571D01*
X142948095Y-108772619D01*
X142948095Y-107744524D01*
X143492381Y-107865476D02*
X143552857Y-107805000D01*
X143673809Y-107744524D01*
X143976190Y-107744524D01*
X144097143Y-107805000D01*
X144157619Y-107865476D01*
X144218095Y-107986429D01*
X144218095Y-108107381D01*
X144157619Y-108288810D01*
X143431905Y-109014524D01*
X144218095Y-109014524D01*
X176622381Y-106874524D02*
X176622381Y-107902619D01*
X176682857Y-108023571D01*
X176743333Y-108084048D01*
X176864286Y-108144524D01*
X177106190Y-108144524D01*
X177227143Y-108084048D01*
X177287619Y-108023571D01*
X177348095Y-107902619D01*
X177348095Y-106874524D01*
X178557619Y-106874524D02*
X177952857Y-106874524D01*
X177892381Y-107479286D01*
X177952857Y-107418810D01*
X178073809Y-107358333D01*
X178376190Y-107358333D01*
X178497143Y-107418810D01*
X178557619Y-107479286D01*
X178618095Y-107600238D01*
X178618095Y-107902619D01*
X178557619Y-108023571D01*
X178497143Y-108084048D01*
X178376190Y-108144524D01*
X178073809Y-108144524D01*
X177952857Y-108084048D01*
X177892381Y-108023571D01*
D13*
X179065619Y-96145429D02*
X179065619Y-97379143D01*
X179132143Y-97524286D01*
X179198667Y-97596857D01*
X179331714Y-97669429D01*
X179597810Y-97669429D01*
X179730857Y-97596857D01*
X179797381Y-97524286D01*
X179863905Y-97379143D01*
X179863905Y-96145429D01*
X181127857Y-96145429D02*
X180861762Y-96145429D01*
X180728714Y-96218000D01*
X180662191Y-96290571D01*
X180529143Y-96508286D01*
X180462619Y-96798571D01*
X180462619Y-97379143D01*
X180529143Y-97524286D01*
X180595667Y-97596857D01*
X180728714Y-97669429D01*
X180994810Y-97669429D01*
X181127857Y-97596857D01*
X181194381Y-97524286D01*
X181260905Y-97379143D01*
X181260905Y-97016286D01*
X181194381Y-96871143D01*
X181127857Y-96798571D01*
X180994810Y-96726000D01*
X180728714Y-96726000D01*
X180595667Y-96798571D01*
X180529143Y-96871143D01*
X180462619Y-97016286D01*
D18*
X170042381Y-87834524D02*
X170042381Y-88862619D01*
X170102857Y-88983571D01*
X170163333Y-89044048D01*
X170284286Y-89104524D01*
X170526190Y-89104524D01*
X170647143Y-89044048D01*
X170707619Y-88983571D01*
X170768095Y-88862619D01*
X170768095Y-87834524D01*
X171251905Y-87834524D02*
X172098571Y-87834524D01*
X171554286Y-89104524D01*
D15*
X150681309Y-115957262D02*
X150681309Y-115322262D01*
X150832500Y-115322262D01*
X150923214Y-115352500D01*
X150983690Y-115412976D01*
X151013929Y-115473452D01*
X151044167Y-115594405D01*
X151044167Y-115685119D01*
X151013929Y-115806071D01*
X150983690Y-115866548D01*
X150923214Y-115927024D01*
X150832500Y-115957262D01*
X150681309Y-115957262D01*
X151648929Y-115957262D02*
X151286071Y-115957262D01*
X151467500Y-115957262D02*
X151467500Y-115322262D01*
X151407024Y-115412976D01*
X151346548Y-115473452D01*
X151286071Y-115503690D01*
X164451309Y-96977262D02*
X164451309Y-96342262D01*
X164602500Y-96342262D01*
X164693214Y-96372500D01*
X164753690Y-96432976D01*
X164783929Y-96493452D01*
X164814167Y-96614405D01*
X164814167Y-96705119D01*
X164783929Y-96826071D01*
X164753690Y-96886548D01*
X164693214Y-96947024D01*
X164602500Y-96977262D01*
X164451309Y-96977262D01*
X165056071Y-96402738D02*
X165086309Y-96372500D01*
X165146786Y-96342262D01*
X165297976Y-96342262D01*
X165358452Y-96372500D01*
X165388690Y-96402738D01*
X165418929Y-96463214D01*
X165418929Y-96523690D01*
X165388690Y-96614405D01*
X165025833Y-96977262D01*
X165418929Y-96977262D01*
X189851309Y-90387262D02*
X189851309Y-89752262D01*
X190002500Y-89752262D01*
X190093214Y-89782500D01*
X190153690Y-89842976D01*
X190183929Y-89903452D01*
X190214167Y-90024405D01*
X190214167Y-90115119D01*
X190183929Y-90236071D01*
X190153690Y-90296548D01*
X190093214Y-90357024D01*
X190002500Y-90387262D01*
X189851309Y-90387262D01*
X190425833Y-89752262D02*
X190818929Y-89752262D01*
X190607262Y-89994167D01*
X190697976Y-89994167D01*
X190758452Y-90024405D01*
X190788690Y-90054643D01*
X190818929Y-90115119D01*
X190818929Y-90266310D01*
X190788690Y-90326786D01*
X190758452Y-90357024D01*
X190697976Y-90387262D01*
X190516548Y-90387262D01*
X190456071Y-90357024D01*
X190425833Y-90326786D01*
X162111309Y-115937262D02*
X162111309Y-115302262D01*
X162262500Y-115302262D01*
X162353214Y-115332500D01*
X162413690Y-115392976D01*
X162443929Y-115453452D01*
X162474167Y-115574405D01*
X162474167Y-115665119D01*
X162443929Y-115786071D01*
X162413690Y-115846548D01*
X162353214Y-115907024D01*
X162262500Y-115937262D01*
X162111309Y-115937262D01*
X163018452Y-115513929D02*
X163018452Y-115937262D01*
X162867262Y-115272024D02*
X162716071Y-115725595D01*
X163109167Y-115725595D01*
X139181309Y-115967262D02*
X139181309Y-115332262D01*
X139332500Y-115332262D01*
X139423214Y-115362500D01*
X139483690Y-115422976D01*
X139513929Y-115483452D01*
X139544167Y-115604405D01*
X139544167Y-115695119D01*
X139513929Y-115816071D01*
X139483690Y-115876548D01*
X139423214Y-115937024D01*
X139332500Y-115967262D01*
X139181309Y-115967262D01*
X140118690Y-115332262D02*
X139816309Y-115332262D01*
X139786071Y-115634643D01*
X139816309Y-115604405D01*
X139876786Y-115574167D01*
X140027976Y-115574167D01*
X140088452Y-115604405D01*
X140118690Y-115634643D01*
X140148929Y-115695119D01*
X140148929Y-115846310D01*
X140118690Y-115906786D01*
X140088452Y-115937024D01*
X140027976Y-115967262D01*
X139876786Y-115967262D01*
X139816309Y-115937024D01*
X139786071Y-115906786D01*
X173641309Y-115797262D02*
X173641309Y-115162262D01*
X173792500Y-115162262D01*
X173883214Y-115192500D01*
X173943690Y-115252976D01*
X173973929Y-115313452D01*
X174004167Y-115434405D01*
X174004167Y-115525119D01*
X173973929Y-115646071D01*
X173943690Y-115706548D01*
X173883214Y-115767024D01*
X173792500Y-115797262D01*
X173641309Y-115797262D01*
X174548452Y-115162262D02*
X174427500Y-115162262D01*
X174367024Y-115192500D01*
X174336786Y-115222738D01*
X174276309Y-115313452D01*
X174246071Y-115434405D01*
X174246071Y-115676310D01*
X174276309Y-115736786D01*
X174306548Y-115767024D01*
X174367024Y-115797262D01*
X174487976Y-115797262D01*
X174548452Y-115767024D01*
X174578690Y-115736786D01*
X174608929Y-115676310D01*
X174608929Y-115525119D01*
X174578690Y-115464643D01*
X174548452Y-115434405D01*
X174487976Y-115404167D01*
X174367024Y-115404167D01*
X174306548Y-115434405D01*
X174276309Y-115464643D01*
X174246071Y-115525119D01*
D16*
X133350096Y-110389619D02*
X133350096Y-109373619D01*
X133737143Y-109373619D01*
X133833905Y-109422000D01*
X133882286Y-109470381D01*
X133930667Y-109567143D01*
X133930667Y-109712286D01*
X133882286Y-109809048D01*
X133833905Y-109857429D01*
X133737143Y-109905810D01*
X133350096Y-109905810D01*
X134317715Y-109470381D02*
X134366096Y-109422000D01*
X134462858Y-109373619D01*
X134704762Y-109373619D01*
X134801524Y-109422000D01*
X134849905Y-109470381D01*
X134898286Y-109567143D01*
X134898286Y-109663905D01*
X134849905Y-109809048D01*
X134269334Y-110389619D01*
X134898286Y-110389619D01*
X145190096Y-110489619D02*
X145190096Y-109473619D01*
X145577143Y-109473619D01*
X145673905Y-109522000D01*
X145722286Y-109570381D01*
X145770667Y-109667143D01*
X145770667Y-109812286D01*
X145722286Y-109909048D01*
X145673905Y-109957429D01*
X145577143Y-110005810D01*
X145190096Y-110005810D01*
X146109334Y-109473619D02*
X146738286Y-109473619D01*
X146399620Y-109860667D01*
X146544762Y-109860667D01*
X146641524Y-109909048D01*
X146689905Y-109957429D01*
X146738286Y-110054190D01*
X146738286Y-110296095D01*
X146689905Y-110392857D01*
X146641524Y-110441238D01*
X146544762Y-110489619D01*
X146254477Y-110489619D01*
X146157715Y-110441238D01*
X146109334Y-110392857D01*
X176460096Y-86029619D02*
X176460096Y-85013619D01*
X176847143Y-85013619D01*
X176943905Y-85062000D01*
X176992286Y-85110381D01*
X177040667Y-85207143D01*
X177040667Y-85352286D01*
X176992286Y-85449048D01*
X176943905Y-85497429D01*
X176847143Y-85545810D01*
X176460096Y-85545810D01*
X177911524Y-85352286D02*
X177911524Y-86029619D01*
X177669620Y-84965238D02*
X177427715Y-85690952D01*
X178056667Y-85690952D01*
X171660096Y-96649619D02*
X171660096Y-95633619D01*
X172047143Y-95633619D01*
X172143905Y-95682000D01*
X172192286Y-95730381D01*
X172240667Y-95827143D01*
X172240667Y-95972286D01*
X172192286Y-96069048D01*
X172143905Y-96117429D01*
X172047143Y-96165810D01*
X171660096Y-96165810D01*
X173159905Y-95633619D02*
X172676096Y-95633619D01*
X172627715Y-96117429D01*
X172676096Y-96069048D01*
X172772858Y-96020667D01*
X173014762Y-96020667D01*
X173111524Y-96069048D01*
X173159905Y-96117429D01*
X173208286Y-96214190D01*
X173208286Y-96456095D01*
X173159905Y-96552857D01*
X173111524Y-96601238D01*
X173014762Y-96649619D01*
X172772858Y-96649619D01*
X172676096Y-96601238D01*
X172627715Y-96552857D01*
X168150096Y-110489619D02*
X168150096Y-109473619D01*
X168537143Y-109473619D01*
X168633905Y-109522000D01*
X168682286Y-109570381D01*
X168730667Y-109667143D01*
X168730667Y-109812286D01*
X168682286Y-109909048D01*
X168633905Y-109957429D01*
X168537143Y-110005810D01*
X168150096Y-110005810D01*
X169069334Y-109473619D02*
X169746667Y-109473619D01*
X169311239Y-110489619D01*
D12*
X129301905Y-81452381D02*
X129301905Y-80452381D01*
X129682858Y-80452381D01*
X129778096Y-80500000D01*
X129825715Y-80547619D01*
X129873334Y-80642857D01*
X129873334Y-80785714D01*
X129825715Y-80880952D01*
X129778096Y-80928571D01*
X129682858Y-80976190D01*
X129301905Y-80976190D01*
X130444762Y-80880952D02*
X130349524Y-80833333D01*
X130301905Y-80785714D01*
X130254286Y-80690476D01*
X130254286Y-80642857D01*
X130301905Y-80547619D01*
X130349524Y-80500000D01*
X130444762Y-80452381D01*
X130635239Y-80452381D01*
X130730477Y-80500000D01*
X130778096Y-80547619D01*
X130825715Y-80642857D01*
X130825715Y-80690476D01*
X130778096Y-80785714D01*
X130730477Y-80833333D01*
X130635239Y-80880952D01*
X130444762Y-80880952D01*
X130349524Y-80928571D01*
X130301905Y-80976190D01*
X130254286Y-81071429D01*
X130254286Y-81261905D01*
X130301905Y-81357143D01*
X130349524Y-81404762D01*
X130444762Y-81452381D01*
X130635239Y-81452381D01*
X130730477Y-81404762D01*
X130778096Y-81357143D01*
X130825715Y-81261905D01*
X130825715Y-81071429D01*
X130778096Y-80976190D01*
X130730477Y-80928571D01*
X130635239Y-80880952D01*
D16*
X146990096Y-81749619D02*
X146990096Y-80733619D01*
X147377143Y-80733619D01*
X147473905Y-80782000D01*
X147522286Y-80830381D01*
X147570667Y-80927143D01*
X147570667Y-81072286D01*
X147522286Y-81169048D01*
X147473905Y-81217429D01*
X147377143Y-81265810D01*
X146990096Y-81265810D01*
X148054477Y-81749619D02*
X148248001Y-81749619D01*
X148344762Y-81701238D01*
X148393143Y-81652857D01*
X148489905Y-81507714D01*
X148538286Y-81314190D01*
X148538286Y-80927143D01*
X148489905Y-80830381D01*
X148441524Y-80782000D01*
X148344762Y-80733619D01*
X148151239Y-80733619D01*
X148054477Y-80782000D01*
X148006096Y-80830381D01*
X147957715Y-80927143D01*
X147957715Y-81169048D01*
X148006096Y-81265810D01*
X148054477Y-81314190D01*
X148151239Y-81362571D01*
X148344762Y-81362571D01*
X148441524Y-81314190D01*
X148489905Y-81265810D01*
X148538286Y-81169048D01*
D15*
X154214167Y-82197262D02*
X154002500Y-81894881D01*
X153851309Y-82197262D02*
X153851309Y-81562262D01*
X154093214Y-81562262D01*
X154153690Y-81592500D01*
X154183929Y-81622738D01*
X154214167Y-81683214D01*
X154214167Y-81773929D01*
X154183929Y-81834405D01*
X154153690Y-81864643D01*
X154093214Y-81894881D01*
X153851309Y-81894881D01*
X154425833Y-81562262D02*
X154849167Y-81562262D01*
X154577024Y-82197262D01*
D12*
X138688095Y-89252381D02*
X138688095Y-90061905D01*
X138735714Y-90157143D01*
X138783333Y-90204762D01*
X138878571Y-90252381D01*
X139069048Y-90252381D01*
X139164286Y-90204762D01*
X139211905Y-90157143D01*
X139259524Y-90061905D01*
X139259524Y-89252381D01*
X140259524Y-90252381D02*
X139688095Y-90252381D01*
X139973809Y-90252381D02*
X139973809Y-89252381D01*
X139878571Y-89395238D01*
X139783333Y-89490476D01*
X139688095Y-89538095D01*
D15*
X156521309Y-98887262D02*
X156521309Y-98252262D01*
X156672500Y-98252262D01*
X156763214Y-98282500D01*
X156823690Y-98342976D01*
X156853929Y-98403452D01*
X156884167Y-98524405D01*
X156884167Y-98615119D01*
X156853929Y-98736071D01*
X156823690Y-98796548D01*
X156763214Y-98857024D01*
X156672500Y-98887262D01*
X156521309Y-98887262D01*
X157095833Y-98252262D02*
X157519167Y-98252262D01*
X157247024Y-98887262D01*
X153554167Y-98887262D02*
X153342500Y-98584881D01*
X153191309Y-98887262D02*
X153191309Y-98252262D01*
X153433214Y-98252262D01*
X153493690Y-98282500D01*
X153523929Y-98312738D01*
X153554167Y-98373214D01*
X153554167Y-98463929D01*
X153523929Y-98524405D01*
X153493690Y-98554643D01*
X153433214Y-98584881D01*
X153191309Y-98584881D01*
X153917024Y-98524405D02*
X153856548Y-98494167D01*
X153826309Y-98463929D01*
X153796071Y-98403452D01*
X153796071Y-98373214D01*
X153826309Y-98312738D01*
X153856548Y-98282500D01*
X153917024Y-98252262D01*
X154037976Y-98252262D01*
X154098452Y-98282500D01*
X154128690Y-98312738D01*
X154158929Y-98373214D01*
X154158929Y-98403452D01*
X154128690Y-98463929D01*
X154098452Y-98494167D01*
X154037976Y-98524405D01*
X153917024Y-98524405D01*
X153856548Y-98554643D01*
X153826309Y-98584881D01*
X153796071Y-98645357D01*
X153796071Y-98766310D01*
X153826309Y-98826786D01*
X153856548Y-98857024D01*
X153917024Y-98887262D01*
X154037976Y-98887262D01*
X154098452Y-98857024D01*
X154128690Y-98826786D01*
X154158929Y-98766310D01*
X154158929Y-98645357D01*
X154128690Y-98584881D01*
X154098452Y-98554643D01*
X154037976Y-98524405D01*
D12*
X153994286Y-83874762D02*
X154137143Y-83922381D01*
X154375239Y-83922381D01*
X154470477Y-83874762D01*
X154518096Y-83827143D01*
X154565715Y-83731905D01*
X154565715Y-83636667D01*
X154518096Y-83541429D01*
X154470477Y-83493810D01*
X154375239Y-83446190D01*
X154184762Y-83398571D01*
X154089524Y-83350952D01*
X154041905Y-83303333D01*
X153994286Y-83208095D01*
X153994286Y-83112857D01*
X154041905Y-83017619D01*
X154089524Y-82970000D01*
X154184762Y-82922381D01*
X154422858Y-82922381D01*
X154565715Y-82970000D01*
X154899048Y-83255714D02*
X155089524Y-83922381D01*
X155280001Y-83446190D01*
X155470477Y-83922381D01*
X155660953Y-83255714D01*
X156565715Y-83922381D02*
X155994286Y-83922381D01*
X156280000Y-83922381D02*
X156280000Y-82922381D01*
X156184762Y-83065238D01*
X156089524Y-83160476D01*
X155994286Y-83208095D01*
M02*
